<mxfile host="app.diagrams.net" agent="Mozilla/5.0 (Windows NT 10.0; Win64; x64) AppleWebKit/537.36 (KHTML, like Gecko) Chrome/130.0.0.0 Safari/537.36" version="24.8.6">
  <diagram name="Page-1" id="wVZ916gHkacC6JUXEYr0">
    <mxGraphModel dx="794" dy="446" grid="0" gridSize="10" guides="1" tooltips="1" connect="1" arrows="1" fold="1" page="1" pageScale="1" pageWidth="850" pageHeight="1100" math="0" shadow="0">
      <root>
        <mxCell id="0" />
        <mxCell id="1" parent="0" />
        <mxCell id="vroib92ddQXYkMbmMrBx-1" value="" style="shape=image;verticalLabelPosition=bottom;labelBackgroundColor=default;verticalAlign=top;aspect=fixed;imageAspect=0;image=data:image/png,iVBORw0KGgoAAAANSUhEUgAAAxAAAAC2CAYAAABJVGuTAAAAAXNSR0IArs4c6QAAAARnQU1BAACxjwv8YQUAAAAJcEhZcwAAFxEAABcRAcom8z8AAKZrSURBVHhe7J0HPJdd/8ef/7Of576fe6/G3VBp772n9h5KRkg0ECJJokLRpKGSCBUtISEjKZWVkr1l7735ff7XuX7XD0nd3SX56bxfr/Pid+1xrnO+n/P9nnP+wjCCSU5Muk8TTTTRRBNNNNFEE0000fSW5M6kGUxi/wFNNNFEE0000UQTTTTRRNMfpGgmsWoCx48fx/3792miiSaaaKKJJppoookmml5LV69eFQiI5EYBQVZQKBQKhUKhUCgUSkuSk5OpgKBQKBQKhUKhUCjvBxUQFAqFQqFQKBQK5b2hAoJCoVAoFAqFQqG8N1RAUCgUCoVCoXRQGhoakJGRgQcPHsDT0xMeHh7sX5poautE8pavry/Cw8NRVVXF5cDWoQKCQqFQKBQKpQPj7OyMv/3tb+jbty/69OlDE02fJImKiuLbb7/F6tWrWdH6LqiAoFAoFAqFQunAODo6onfv3nj58iXi4uIQGxtLE01tnlJTU6GoqAgJCQmkpaVxua91qICgUCgUCoVC6cAQAdGvXz/k5eVxSyiUT4OmpibWrl1LBQSFQqFQKBSKMCMQENnZ2dwSCuXTsGPHDiogKBQKhUKhUIQdKiAo7QUVEBQKhUKhUCidACogKO0FFRAUCoVCoVAonQAqICjtBRUQFAqFQqFQKJ0AKiAo7QUVEBQKhUKhUCidACogKO2FQEC8evWKW9I6VEBQKBQKhUKhdGCogKC0F9QDQaFQKBQKhdIJoAKC0l5QDwSFQqFQKBRKJ4AKCEp7QQUEhUKhUCgUSieACghKe0FDmCgUCoVCoVA6AVRAUNoL6oGgUCgUCoVC6QRQAUFpL6iAoFAoFAqFQukEUAFBaS9oCBOFQqFQKBRKJ4AKCEp7QQUEhUKhUCgUSieACghKe9GhQpiePn0KBwcHWFlZYd++fdi8eTOWLFmC+fPnC3Ui97BhwwZs2rQJ+/fvx8mTJ3H27Fl4e3ujoqKCu/svm9DQUKxfvx4rV67EqlWraBKiRN7ZihUr4OrqCh6Px71R4aC+vh6WlpZYvXo1ew+t3R9NnzeRd0P+qqqqIjU1lXtzHYfCwkKcOHHijeumSTgS+e737NnTIfPWh0AFBKW9+KweiJycHDx58oStGKZOnYpBgwZh7NixWLBgAcTFxbF8+XKsWbOGNSwlJCSENklKSkJRURHy8vLs/cyZMwcTJ07EmDFjMGHCBKipqeHy5cvIzc3lnsyXByn0REREsHHjRlY4kudFk3Ck7du349tvv4WOjg73NoWH6OhotrKVkZGh+a4Dpi1btrDlZu/evbF48WIUFxdzb67jQCrPZcuWQVRUFCoqKq3eB00dMykrK2PKlClsCgkJ4d6ocPOmgOAhJ8AOJzZq42Yyt6glBQE4sUMdu84HoYhb9GmpR8qd07DUOISQUm5RSxJuQfPQKdiE5nEL6pGZUYzy0lrud/sT77oPm5eJYdaM6Zg+/fU0Y+YpPMio4rb8cGriHWF8TgdnXtYxvzJwR98UJ048QOtyMBO+OxRhezMMhdyS9uSzeCCysrKwdetWDB06FCNHjmTFg6GhIdzc3PDw4UOEhYUhMTGRLZgLCgrYSkOYU1FREdtKlZeXx97X8+fPERQUBHd3d9YjQbwTw4cPZ5/H7t27//BldEauXbvG5oOAgACUlZWhtLSUJiFJlZWVmDlzJrS1tbm3KRwQ74OBgQEr5EmZRPNdx0vl5eW4cuUKBg4ciHv37nFvrmNB6ql169ax4oF4lFu7D5o6ZiLvi3iPFi5ciGfPnnFvVLhpTUAk3dgD6b/8FeuPXEfgG5ZmFvxu78HEfwyGzNZbSOGWflrq8PyoDJQGLIRrAbeoJcXx8A9+jsicSuYHD5FXNkPn9DVEF34uLzcPAQfGYMbSddhv6cg+59fStTCklROj/+OofLIH8xRGQ/ZeGfOrHElPgpm8mY7WY1XicGHwL1Dff5eRGu1Pu3ogiMeBtFYOHjyYNZiNjIzg6+uL2NhYbosvDxLykZnJqEjmOZiYmLDGDKksiZDIyPgcWeLzcP36dYwfPx6PHz/mllCECTExMaETEKTcIRXt0aNHuSWUjgYRp1JSUqzntqamhlvasSCVJ6lENTU1uSUUYeL06dNsqHGnFhBOB7Dn918hffQKzLxbRDq8csbtq9uxfPAm7FZvPwHx8tRmqI8Tx70SbtEf8Eh/GMT3nkY4sas/Czw8OTgZMobnEPXxOuGtVAUbYpXqDGz1fZ8HkwL7if2w29SLkYHtT7t5IO7evcsaxt26dYOxsTGioqKELl66PSCFGInH7Nu3L/r3749jx46xLSWdHSIgSDjXo0ePuCUUYYKE5QmTgCDeB319fTZkkgh4Ssfk9u3b6NmzJ7y8vLglHQ+BgNDQ0OCWUIQJ0iexswuIxOt7sXeyGGN7XcT51VsRxa0BSvCMWXZt91Hob9KA+rYbzQREIq6prcfUUaMwikmj915DpMB4b4jFLenVsHa7g3OLF2ESWT9lFvZ7Z6GB2wQNJQiz24rR7P6LISN5GiccjLHZJpJZyUPEGRXoTZ4Do0OmWM1uMxryB6yQJDDO469DzdActhF5SHLZgUV9v8IPXXpgoMxpPMqsxSsPeaw8exMxgpirujI8tV+NVXaPUcFrQMkLV5isN4Gz+yVsGTOaPf7ctZvgm8NtT8i9j7NqZB1z/sU7oXtiL7TP74B5GPF6tIQREIemQHKvGYLfES9UWxqCKytXwD4gH4Jgq9IEN1iuWI/bcQKbtwzPbxhg9Gju2S5ThH4g/0aqBQLCj4RDZcBF1xhHj97nBEIpgvW2YBm3n/z5kzAeMQgHjns3CYiChzBeOANjyT2Nm4I5F5+hqemlHoXPLmMztz9JYxZKQ92fE5UFobh4/ih2Wl7DBaNV/GsbI4sDVvGM5HuTT+6BICKBfKC//vor5OTkEB4ejoaGxixGaQXS0hYYGMgKiT59+kBWVrbTd4iiAkK4ETYBQbwPRKRT70PHpaSkhO0LR1JH9T4QqIAQbr4MAaGLnWPF4XzXFnf2T8RJYsMTSoKhd+wC9l7zwg3FLVDeygmI0ifQlFKClLolPPz84Od3D0fVZmCSoR1ekG5IvGc42vV79PhNDZa3mPU+3rhuuAE9x+rgzqt6ZoMqxLkcYYxYSRxw8oGPjzvOqK7A/37piwlGgeQMSLRVx9yve2GB/FV4+TDbuJlDYu5qrNnvhXyywfOjmLpuK/Z4ZaA8MxzWmwZhzobtOP8gEflVDXhhIYofNU8gSOBQqS3EHcNf8ct+F5QwdmdpwFHM+Ht3jFKzwX1fX/h4WEN39UxMXu/ON7YrXsJGTQoT5+zDLXJ+Vytsm/8j/jFsHnY+bq3RlhMQeicQyF5g69QUeML45x9h6JyBam5ZwXNL7PqpJ06GkV/lCLJTw7Cx47Hbjjwbb1hrS2DFZHlcz2DO8sKYExCkzIuHxeL1UFC4xoYopV3bjMkrxaFj7c3s54MLujMx9L//wcZTj8H2Dou/iVViitA56cy8M+a9eNpAXW4SFtmEsCKiItEFZpPGYo+FD+6z79UJBzZOwQ8zZOFPQsmKHmO/eA/8c+w6nPR4yp7jis5yjFmzEScj3uzf8Uk9ECTmX0lJCb169cLhw4e/iJb0toRUmhYWFqz4Ip08O7OIoAJCuBEmAUEaNfbu3Ytx48Z9UWGCwgbxPvz+++8dtu+DACoghJsvRUBoDV0Mr/R0+F49BL1T4eyakqeGOHZ2BzxzcnBdSgHbGAGRziwv8pGD9HZV2L8UmMBAXbwV1g+VxIk7qahEFCwG9ICYkhMax67KdIZ6l4Ewe1qFirwQWCoNw7ozkSByglATYwO5RV0w5RC/s3r8+W1Y/vt0GD0SnKMad5XmYcMiXYSRhvrIk5gnp459Xvy29WemkyF78CLiuM1fnB+Bnrpn0NjHurYIHqZ9IGJyF6XM/sUBR7Cya0/o3BW4KKoRbqmHRYMMQK4gw2Uf1IeLweKZoG29BhGWEhgydz52Pmk9Tir4xHyM7t0FfQYOZfusNk+bbcNAgo54Jb440rsnTN0yGwVEYbgN9HsNhiURbvmBOKrVFwONvZs8A+XZePUiClnMDjWhAg8EWZuIC4zxrryduafKMGyfJYc1Rx6x5yHUp1zFJtGfoHT8AduJOt52EpbstkF441gTdXjlugfzBqvBLbka9ZV5yHgZw7y/JpKu7YRsn/FwJNml7BEMl87A4CV2SBU4S+IvYLW8JDbeeDO47ZN5IMiQaGT4UjKyDukEV1f3CYPGOjHkub18+ZLtYEyEGBnutDNCBYRwI0wCIi4ujnofOjiksYn0eyCVU3V1kxHTEaECQrj5YgTEYDHcYSzPVI/LMN97GnFowDNjc5xSdUYZLwu2a4mAuMW2zidYrcT0gb9BdMhwDBkyhE3Dhw9A13/NhCEnIM4P7gV9+0gITO2qbDcc6SWCk09LkB/jiP39RWHxgltJKHqGs/tWYoIh3wMReXozto9dg0b7HlUIUJuPHUs1EdRcQHjzBcRjwwmQNDiDMG77VgXEYYGAqEfBQwvI9JXF7cbG8VJE2B6EzMi9CKmvQPCxndgwYS+aW1TVT/di6bY5UHvQmoDg4anpdKxQ1ICNdzCCg19PsdllrFiqLfJpVUAY9BqCizFARfxNGMoNwo4HrZdrjX0gmgkIlR1+KIzRxNK1q7Dfq3n8VDIukT4QR3yQy5zdW7svRJl3P4QRNPz3xoibAX3Q6xcZXE1olCuoTPPDCZlB7PqBvbpg1Oi5cCGenHw/6G+XxvzDrKuET6IDNmxRwqar8dyCJj6JgCAxxWQoVjKs3YMHD7illI+BjN5EOp/PmDGjU47SRAWEcCNMAkJPT4/Na+nppK2N0hFxdnZGjx49OnTfBwFUQAg3X46AmI1b+cyvFFfstTgOnfsROH3eHNtuknicJFiJEwFxmzVEH8hNxrw5KrB5/JINO2fTy2gkpGSiuKoevIZnODOoFwztIhtbwyszXXGwVz+cCixGXtRlGPQcgAuvCYjnOHdAihEQT9mfREBojBeHR6M9XIEHqvOhtmwnglsREAEHJkDKwALPOQHx/Nxw9NQ7izBBOFFdMe69JiDOMwJChREQAh9ICcJtjCA5ygCh9WV4ekQHUpMPoflbrw7ai+WqbxcQTw5NhvT+MwhvrYsER02hNyOkeuKIe3ajh6HopS30OQFRFnsdRtJDsce/9YO0LiAeIP+lEpbLLoahX6PiYkjG5Yn9seeoL3KQDuvxPbFA+QL8nnPvjEkvo2KRnJ6PijoeKpLcsK9Pf/QfMR7Tjrgw7/QlvE5uheLgGbhJ+obkMQJCWwYLTjUTEPGXIb1ZEYqOCdyCJtpcQJDOiUeOHGFb+MiQrJS2g7yE0aNHs/NKdLY5I6iAEG6ERUDEx8c3eh/oIA4dEzJ0q2D+n6qqjx9X/VNDBYRw8yUJiBvEFm9IwC37y9gosRZHrJThzG4WywkI4oHgIeb4AvRfuxX2LebW49U1oIEUmw2hOM0IiP22ES0ERF+cfFyBskx/nFzfHypOTQNU8F45Y5esCCYZ80OYiIBQH7cG7o3DuL5bQDw2HId1+ywQXs7+RPj5EeimeRIhgv2rYnFmY0/8buiOUkYEFTw8xwiIrXBKbSEgRuxFEHOPSZd3YfvwpbjZrB0p7eYWTFgxF5oBbxMQUxgRcxLP3hGNX1PoA9Ne3XDANbMxfCvNUx9reg2CZRRzlCw/HNToh8lWcdxaQgNqqkpBRoGtDmklhEnNA2Ul3pCZqoRNFi8bO2ej+D50hnWFyjE/FKASd5UHoIemDZIFJ+aoqyUPtASRlw3Qs8tuOCVlIJftityA8LObsHrgDNwmJiUREFrSmG/e7Ft4DwHRJn0gSIVsZmbGhtrcunWLW0ppS0jnajI6k7S0NDu3RGeBCgjhRlgEhK6uLjuJ4x+1mFA+Hy4uLmzfB2HwPhCogBBuvgQBkeCoDfV+03CNNZZrEWetjvH/6oLF2t78zreIwfkVslBSvMZ2om7Ivgvx2SKYteMCwrNz2QbLFLf9EJtgALtnpAX8BU737Qp965dNAiLDGYZdf8eR++XgNZThmfUO9B+3AzfjyP6JcDeVxHc/iGD2Yb6AiDBXgMqI5XBrJiDub50N5YUa/BCmiBOYJa2Cvff4/dRSr87FQGUNXA4rQSVjEOd5aGKY6ALsuRnJHD8PGX5H0afHt/iPrgdjSjMC4sEZrO+hiJspTQLihdV+iA/aBX/GAm/I98cxiWWYvv4a4pj7y431hMGqbvj30OXQC2pdQDw2noCVavvgHsN/Jq+nYua6GsCrisMl+T4YIGmOoMxc5GVH4Ir6D+jyWy+cIV1PGnLgeXwLRKbowTOFv29m4HmoGSyD5hPmLC+MsHTrZCj6EgGRgHPLN2Dz5pvIZoz95yfWYoScKqxCspn9cuBzeB76//0vWG8WwL7HmhAzDB/WF9usg5HGXlMyHp5UxuTZ1givKEKMoz56DtqOG0mlKCnIQ7zXacj+/B26DZ8Ohwzmoefdh666BGYfbxbYFWcHCQV5yH/qECZXV1d8/fXX7OyhtHXv02FpaYmff/4Z5ubmneY5UwEh3AiDgBB4H4iHlI4E1zEh3odVq1axXlYyB4QwQAWEcPMlCIgUZyPoT14BF35jPqqfnYC8yhxsdhf0tk2A/UY17NRyAb8tuQFl8bcgvWQy+vYfgAEDBkC092acuJOEshqm7Gx4AatJI3HYMRqCxviqbE+cGDkaFo9KmDMy1ObC4+BK9BIl+8/EMrHdUNong8kHg9jtY6x2YI+YPLwb20Er8VhHHLpSBvxO1DGWWKOyB6YP+PfBe3ULy+YOR+9+anAIKwavthKB5lMxZnA/5vgjMGr/ZVjsG43xp3xRzqtH4dNL2DpGC25pAgFRisirx6A0wwiPuVnZqpOcsHdNT/Rj7m/AjM1Q3LEKizUXYac/5+ZoQdg5cUwf0BN92HtqkQYqwJYRVzzm2VVlu8OAWUae3aiZ03H4ohn2jp4G2wi+vVZXkQ43RkT05o7Tf8YKbHKNRAHpRP38GGR1lkIrgAiIFNjJb2fqVlewJnpNEfzPSkJsRH9mv/5YabwXuhPGw+TcQ7AxKbxaRgMcw5hRQ9Gfva5BGDbUGM7xxahhbMX68lfwOCLOPEP+eactE4flpQvYumEqNngzUrD4CUz0t0L8PL+TPUvSDWzZoQ51pzenMW8zDwTpNE0MQDKrckfv9CbsEOOHzKBLhniNiIjglgo3VEAIN8IgIMjkjJMmTWLLKkrHROB98PT05JZ0fKiAEG46v4BgbIbaKlSVlqNW0G7Cq0FlTTkqG9tRGlBTUcmI9lrmvyYqSguRwxyHHCsnt7wxJIfMJ1BTWoqqmnq+WGDgNdSimllWXccDr74KJYXZyKusQFlpCUpKylASdx+HD0hjvgPfEK2vYc5XVgFmcw4e6iqZayqv4p+nvhrlzDVV1QmuqAEVJYXIzeG39LPUl6IwL4e5vhzkljPXXlfKCJw69pp4dTXM9Vc23TOztL6mmllWxZ6zrrwYxTm5KK0qQ2kJc43l5Ui8uwPbd0vANqbxol6jnnlmpOU+N4f/TF5PRahoOhlqi/LZZ5eTl49K5h5qS8vAPK4m6sqbjlNQggpuV/LsKirLmH3Ir1beS205ivL4+xVV1aC2jDludV2z91aPooJc7r3lIK+ACJFm1JU1njevqATkaVVXMvdPhCGvDlVVFSivbnahzHutqGSuodm9CWgzAXHmzBl2xKXO8hF2dMis3qSX/c6dOzv0GOnvCxUQwk1HFxDN+z6QflqUjgfxOKxcuZKdeZp4IoQFKiCEmy9BQLQ3dblBMFcZh0kHXFnjMTk5CveOy2P9THHcTmvdOG9f6vHK1QTqYxdg/11yfUyK8cBuCUbgqF7Fq45wiUJAmwgIsjNp2SMTn1HaDxLKRAqKzuCFoAJCuOnoAmLXrl2YPHky9T50YIj3gYy8JEzeBwIVEMINFRCfABJCFHkNOn1E+eE9TJqyaB1cmg0l+rlpqM1D8PmdmNMYjjQeklq3EF9D1cP78tF9IEhrHvE+kAwbFtZs6CfKJ4d4IcaMGcMabsLuhaACQrjpyAKCeB9I+UT6PlDvQ8eEjLa0YsUKdsJMYfI+EKiAEG6ogPh08KqrWM8iSdW1HXEusAbUVvGvr7KyGo3RUpT34qM9EGS26SlTprBjq1PaHzJeOpkfIioqilsinFABIdx0ZAFBwvxIGUUKMUrHhHgfevbsKXTeBwIVEMINFRAUyofx0R4I4nX47bffEBLCH5qL0r5kZWWx7rfz588L9cgyVEAINx1VQAi8D4cPH6behw4K8T4sW7aMHYCDzEAtbFABIdxQAUGhfBgfJSB8fX2xf/9+jBgxArW1jVNbUNoRMozrxo0boaysLHSu/+ZQASHcdFQBoaWliWmz5iM3g8463VERzDrt7u7OLREuqIAQbqiAoFA+jI8SEB4eHhAXF2cnZ+oYrd/liL/rwlZIJLnc80do81m/BdRW4qOj8eqqUd/QNITZ5+TcuXOYOnVqh+sgSvJERQU34PIf8D4CoiI9HI8TUlHwtqxWk4OnQY8Rm1PRbEizjgAP1cxj4L3XRdWiKDUJMc/T0NpUNm1PLUoyUhAYmoWWb6qhIAGP7t7Bg+DUP7yWTykgSD76kBmJifdhwICBOKApgcCkNJS2cxtHXR0PdW/pmlSTH4+nDzzh5tpUXrHJ1R1e4dlM+VSPiswEhPpGgcyzVF2QgqTg58j9wBGyG0pT8exRArLK31ZiVSAtIBBPkwuaDavIUBqHO43X5wLvJ2GN476z1JUiPfoJvD3uvHYfLvcjkP4e3bLIe12yZEmH8z6Qhpn37Vf2cQKiGnnhoXjgeReuzZ4fP7nCLTgFZcz74NUU4FVgENKLP8KLVscNj/kh8OpQ8CoQgWmFr+ePt1BXno3YQB94uLW8J2fcC4xELnm0Zcl4EvYSMblN33ZtLfPNtPN3KiwCoqREMGXbu3mngKgrQ2bsU/i0/F59niO1RRFbnRmI+xEvkUYy4PtA7KpOPv9XPZP561sZzvRNmHxcSr6BOOQ2jZX7yamrZmxS9nT1yEvwhldcFpqPyNrWfFQfiBs3bmDYsGG4ffs2t9nno74sHWGX9aA2aAJriJI0duoUTN5njSdpXMt8TRFiAv3h8TCckRofTk1+HO7e9kFcUXmHMFSfPn2Krl27wtvbm1vSMSDGwZ07d/Dw4UO2r8y7eB8B8cJ8LoZMnAE9z2SUvFFOVSPTeR/6/+/v2Gwb8YYx/Lng1eUh8YE1vB6Xo+a9VGs2vPXVIT7eCCHtUhbn4ZHZLnQZcBavjeWVF4IzCnPwS++x2KDrzM5O+i4+pYAghhwpY0iYHhk44H3R1NqJ6TPn4NGOf2Pg3tN41G4NcjXIfe6Ie54vkdHqZPE8ZNzchJ9/74mBo8c3lldsmjwXK44+ZMqnamT4XYH+utN4zuSD1Fu7odZzHK68u5x+KzUBezG0/3IonHmJ0pbzszHHL422glKP/+E7HTcUshVOPYpTQ3FRRxUDG69vLKZPn4ZDVwKRIThG9n0YSA/Gf38f+tp9jJ4+D3LGzojLeHcJSYyXXr164e7du9ySjgERrTExMbCxsUFcXBy3tHU+TkAk4fLEfujfpR9GNXt+/DQZM3VvI5V5H1Xpt7Dvl644cr/kz9c5ldkIue8Dv7BEfPDUfDX5cDHsgi5Gd9ByWPnWyA86iY0j/4lug1ve0wQs3XkKgWT+stRbUDM8AcsgUjdUI+fZVXh4xSJbMLdZOyEsAoJMHOvk5PSHZeA7BUT+E5huHIZ/dxvy2jsZM1UMUvtvIPpVk7WZ76cFqRNH4Z76BzmOsVjL0l4yAvgB0qprO0Sj6qegJPUBXL2DkZzzPgq3HgWBlljfRRb2UVXt8EzqkB/njtu+0Sgixg+vEiFXVmPlpQfI/4TTsn2UB8LMzIyd++Gzt3w3VCPZXRezRszFjeb9JAse4uCq/hgsbgd2AsaSQBjvlsbMUzHs6g+lylsdPWVP43E7F3RvIyMjA/3792cru440MzWJObeyskKXLl0gKyuLBw+YzJyfz619nfcREGFnV2PD6O8wRdEGIektZHXNY+bdKkPy399gv0PT7JifnYYnONGtC477vq9kzcH9AzshNc0Ez9rlVebj8ak96D3CEpHcEuQGw0J6Kn4atxGmEe/XCvupQ5guXLjAzr5O5gggDRd/5J4nRt+AgYNw9LgZck6OwiAdczxmp+psD8rgNn8wtHfYM3KwNRqQdmsbRBQuIPS93Ew8JN3aC83+U3Ht3eX0W6kNOIDxsusxbo4inkSntDBCK+CnswlyG79B18P3WHHOq06Ek+ZMjFx8G5ncVoSsu/uxYMAwSF/nprRNd4eWhhxWWsXzfwtIOoPNI/tjrq4Lkt7iPCINDIsXL2bLho7Y94F4sMgAFdOnT4e9vT0SExO5Na/zcQIiGbaT+kLvyH205iwXUM4Y24Y9RHDCv/TPC4j0m5DbqoiNtz9CQdcUwO1Qb/Q2cUfhexQJ2f6m0JKdhVPvPbZHEZxm9seuvc5oVXN/QoRFQBw8eBDffPMNO0s7CffLzW29QHungCCCf6cMFlhEcws4Xllj+/h+mKlxA7EfoDJTrm9CFyVHbhbrzkn48amQ0juGF+/lDGcERNBFyPbeBIeY9hEQ3loikDrt/c5ypK35KA+Ejo4OKyA+e+x9XT78j63Bb5IurLu/iRpk+DnhhMolvKwqROw9EyxfMBED1xrC9X4c38isScQzT2vW0CXJ2v4unic33U95WgCicqMQ4XYH15j19wPuwlJ3MX6dtA47jtxh1lV/dsVN+p+QApAUMB2tL0pKSgoWLVrEZp6vvvoKCgoKbOf7wsLXq4n38kAcn4+ZZ3Zh087jeOwRgsrGB89D4V0T6DpZQqeXCEzsX6K5szc94DKs2fdrh5tuaU3vqyIbsXGPEJCajvgH3Pu/7o3gnBbipDgCvo789VbWvojOaarCK9IewScxDSmx93DHgWxjA/snqZwHJB/PL+6BxM8/YrX6SdhFZKGyNANx97yQVNh0jMqcOER6PUAau1Mu7htqQ3q6CUK5Cy1LCICD9Q3cf8aJr+zn8GHPRdJF2F4LxqsibuPaXET6hiMjPRmBt6+x9219+RoSSt9mdjAC4rQeeo+0Bmse5Yey4uHHsfIwefn+YUOfWkCQULgtW7aw+YhUogIh8bbWOGLMTZkyFSnMu012nI7eu4/jKX+uf+Qn+cIrOR8ZLxxw2Zq8UwfcjhTkx3qUZSQj4n4EYzAGc/nmMu4+TGkMe6wvjkNw+AM8a9YSVZsbBv/wECRWVqDg8Q3oDPsd8+bIwtj7BdIrWpYQjIBwUkYfOQtG1LzNGqtHeUY8QnwimTfEQ8ptfWgNmPaagKhKeoqb7PUx79g9CEnvaGmqebwP42ZfgPGWWTDw90Bys7HOy7OcsXWnE1wNemDQcQ+QdhFeti+M1nSBzL0WYRPVr+B5/Tg0rnL+qgwPaGtswLKzL/m/m1HgtQPDF26Anm/rJqHA++Dm5sYt6XiQPEbyHEnz5s3D5cuX3xASHysg7CaLQueQx2tCrSXlqU4w6tkHZg8EijMPL+xtcfVWMLLY4qoGuVF3ufx6EQ7eT/nHq85EyBUNTJ4xDVMUzeAbloOq0jQEpaXiRZgP3O2scO1RHIrYY+TB544jLnJ56qKtAwIFrqZaRkCYiEDE9C63LfN+Iy/DlilbAtPezHjZDw9Da8MMHH+XTV6ShCdhEYgvKUTWw6vQGtQV8xYpweR+JHJqSpH5wAtRiQXMnfFpqMtD/D1PxGXxDbKaggy89EpGarQnrGyu4GZQOj6k9hMWAUEEN4n4IHnx3//+N+Tk5FjPXctGuXcLCD/s2ymNeeZvDrlf/EAX4xZKQP0uP1qgJvMpfF+GN4UwVcfA85YtmzesLtriIb/CQmWSD0y3MnXGNHkcunAfAvOpMNy+MS9ZWV+Bm18y+DmFh5LkcMQHBSE1IQre7DY2uB0Q/obxWxn+CK6kjGa2sbYLRtprjbbpuHvTnju+HR5lvV1aVxckIerefaQ2tlPwUPYqAi99HyOLZJqqLLyMicXzxGS8eHiNfz57P0Sm8Ev94lhfnJDqjwkLV0PH7imSShpQlfkQXhFxyBNUk7wG5Cd4wTM2A1UNDSgJsYGciCKuxnDfR1UyfGztce12HFvGvkkZUkJvc8/MGjcfhTNlf3PKEMrYs+z9MuvvRuUytQShHpmhV6Cz4DdMWKeCI3eYOqOqFgXMe7kXm4lq7vWVRF6FDbsveV6X4eKd0BipUZ4ejYSHDxEf8xKu7DY2cH8Szr2vt/NRAmLbtm0YNGjQ5xcQvApEO+7AqL8vhsbZS3B08UCs4MkIqEiGx7G16Ne7K34cIAaNg57IKk2Er+0WLJg/nq0cSBov0gvTN5o1VuxJV6ZimdxsbJwtg/XM+oPm2hBfOBRfdRuAcbN2wyX6A1qE2hgiGshL7KhD6ZJKmBh9XAbC//73P2zatAn37t1DURG/yCDGxB8JiMgTc9DzgB1OntOA/iVrPBQY4fWpsFLZg5uPb+HYcFEY2XICop6pcC4fgY7MDMwn73euGGaM0oCJazrIN89Lv4d9Cj+hh9RWmO0h738uxg8eh6Vb7JDM1dNlL/xwU3c9xJfy88e88YuxSvEmAjlrLcV+CnosWAhlZpvNUmSbMeg1UBLWT7KYjy8et9bPwdD//gei4xdB6lY4cqLssfeHLjj2uOnTTHXbh+2/DYN1EvmVxwoIqRnHEMv8Ko26CYOl4zB44kYctEtAVZofzh6Yjxkz53B5dioG/XUi1uz3QTo5ZJk31ESmYamiHrRkpLGY2WbywJ+wRMcPKVUthBFLPgJOGWDgRAdG1LzAhc2L0H+eOsyj3188EGbPnv3JJ5L08vJiDU5BPvruu+9a9Uiw3ocBA3DIxAQNTOEZYzMOIoyACGTrxXo8MOmC75asxcF9KyC+eB7mTBmJQZO04MsaQtVIvG2MRf+dhOVrtmIiecazJmLyRGUc9+E3T9QE7cfyTcMgcbfJMC7ykMLITctgHJWHxFM6WPzz/9Cr5xBMNXREaEGTsc6HExBKlxDx1rC2MsRcNcKK7qq4z+ye5mKAnURAsH3Bq5AQ5IV9stJYxuYB5h0vWIS1Nh54+ZaiuCZgH8bOOwRH1ytYreoErygugzdU4vk5JSy6HY0nOwdiqIkbCsnllkbBSnUk/rFUC1Z2jrjjFdd6ZZLOCQiLcG5BM2qfQnWKMhQNH7/Rh4aMu068D0pKSqir++geaZ8MEnpJ+pf99a9/ZfMc+UuMTTs7OyQkJLDbFBQUfKQHoh8MzALeGV7ECogefXEqkDyrXAQYyWJs93GQ3HwR4bWVSH/mDo21SzCNKxPGTliIXZYvUFAaBuvdYuj2e3d0H74CRpejUBxxEQsUme2kV2Dz8nmQNfNEankmnp7ei+nTxDCTy1NTB3yPwRvOIiiXsbAainHXpDf6HPFmy86C0ONQmNgF48RlcS74TTca8UDs3CiGc/xH1DphxzB13VboPYxA+HEtLPjxa/QWGY7pps6IKovApYE/Q+uIH3O3fGqLvWH88w/YfyuDrXMLHp7Div+thvhuacxdKgHFCyEfFLpKBMTChQsRGdnog+2wnD59Gv/973/xj3/8g82PpFGOCAkSKkzyIYGEOf2hgDBrRSzVh0J7tjKkd/mxzzHv2mz03qwAqximQKhhjHVTbcyex9U7U/pj2kpzPE2tQP6j41g8oTv+030oxFYfhn8OyY+XoSg1gMuP8zB7whAMGrwSZmwjGA8xltsg1XMQFLcdhTbZZs5o9JuyHnpu/LqZbFMSfAO7Z03DxIlz+WVc3/FYZXgDMaTeL4nB7YMHMG3+Yv71iI3GSilj+KeUsuKyJVn+R7Hjp7441xinW49oq23YytSVN0kxnu2O7bLTMVhqO/boybHHnNhnLBbsuIIYxphI8zCCzOgf0FVEFOMVz8I/ox6JtiPwi+p+eKdzZ2yohi9Tt/yw5wpTF/NQFXaJERCbcYPE/1YmwmnnEowesACyyp5405Fchvj7DlBcMZ/7/iZizERxGF+J4dsy1a9w3/Y0li9Zibns+imYt3gLrj5OZsqNOoRdUsLcfl+h64BRmKV3G/FFxfAx7YIf9W8gp6oGeRE3sG3DYEwV47+POZOHYWC/hTB9kss8Lx6Sr+tC4YcfsHSNGtaS488di3Ez1uKIRzonUlrnowQEaU1esGABWxl8bhrKo+AksxTjuvKNi6HS+3Hc/Ayu3PVtUnElwTiivxELzhLTjCE7AKfPn4VFcLNWwODdGDd/BbQ9+C76dKcF6P/7COhwqpxQfV8bAzedw5MWjXOfC1IBkzAA8j5I3C5pESNhZW9LxCuQlJTUZqm1cwgSuRYiCsTExPB///d/gkzEJiIqiAFBPBIkvnPcuHEICAjg7upNws3mYuKuY/BMDMM2FXtcfljAFha8RCts3eeE4KTHuDBCBPsv8ftA1CY7QnLUcjRvHM33MoTYGCXcIq0V+Y9gsvof6D5LGSFcFi512wOpiROwi1TUvGxc1tqAVbLnmn3wUTBesRwbjO4gm8k2OU6LMKjnb1Cy4/IUiuG28ndM2nUd/MaLYJzuJwJzP/4JKuKvYl+Pfjgd2GSOpXkewi7RSbjMdjTIg6+hLpQWmiEo5iGOrJiK5UqnEcZl0YoXp7Hb2hzuzRp10wwm45el2+FAvuHaR9g19Dv0XHoCL7gvvzrgIEb/sA22kSWtFK6FCLLURXcRCWyXH4ef/tUV/fSdkMtps/dl7ty5kJeXZ/NfbGws+7etExkymgiG5nmIpB+Ygo+49W/dusWG86moqLDzPsQn8FuKIy+MbiYgGvDocA/81mcATgpGnq4MhPmkX7DgAnmH9cjw0MWk//yARSpPOaM5D277ZDFNbD+elTLZ4rkp1qtOwsZ7Te1lxd6KmKoqDqNg8oRr4LFiNPbsckDr/hEeMm4ro9e0NVDdb4pjx45xyRxnL4SC35BWgbgbRyA5UBsPmUMKBMR1csASXxxVXYIlhs2M9gxbyK9ZDhXr6DeMdULNo30YI7cPdoy48pFQxA2vKL7BWhGFU0r74BceD68D/dH3kBvy2WbcBhSE3cC6+WPwM/ucR0DO8AROWjjgHvPdNfIuAYEInF4ggx06d5HBLRFAGgzIyEvkuyeGeGvvuyMkIkbJNZIW3+Z5jggJYnQSzynp4yUhIfHBAuLK9EFYukgR+kcF+YCfjpuZIyC5nP1mKxgBcahff1g+TcKjI9sxY+RKaD/l8l9dNM5vkkbPOb783wzpzldw2sAFbHBxljM2qyljqwtnUMZdxNKeP0OMeS+NeaUmAnZqZnALalapJZ/DrF+WwPR+ASPEy+BxRBSip+4j8ckZaM4ZjuWq/i1aSJvIe3oSqvP7YpnG6/d07LI7ngo8d+GnMV9uO/beIx9mFdwWDofe/jtcK3Q0LEf0gt7JR8zXx6e2xA9H+/SCiWsWKyBKHh/GvB+/xxy7jwucOXXqFGbMmMHORdLWdWNbJmKEkTw5ZMiQxnz4r3/9i/1LGuVI/U88EmRiX1FR0T8vIBCDCytkoarClKPMr0LnpRimrgp70rAVcwy9f9oJi8a6NAVXVJn88oL/ttKZ8qyP8nWunixG+N0TUG6sEwnhOLJpBAbpPGR/pV7VxKx/9cHqQ7FcnZQLyw3LMXvZYUSSl9uQiLOz56Dv4iN4xFWVdREHoWZ6Er6vqpF2TRxzF1vgWaPLqRqP5cQwQ8EJMRVvNkhkPz4FXZGRYIpHjnrE2mlix/AFcCG3UOQH3dk98eNUPTzmPopq3x0Yt3YNdPz530TkKTHI7zOHwDEfYz0evbVN4JfJ1aqMgPA/0R+9DK8jkxEQlWG22NRfFc7hEXAxkMaiWRtxtUWkZyMVT7B3qRRGSodyCxhLw/oizh33YcNgCx/uhOSCbbBsWo2Mw9KYM+8QnBP4svmB7hDIn/Ploi/K4X2kD3ofdEFeWTkSvc2x1SaiWf2fiPPKw9FXw4v9lrLcDmDRP3/ALM173DddAjdDeQxfpQ7X3LdLiI/qA0FGYCIV+oeMkPKpyAs4g00b5SG1dhUWTOiFn/7yDTZbRfALpdwHOKDNPPRjLees4CHM+zIOGRvDRGMVBszfCiM/TkBcE8PAjSq4GtskMnLd1CG64Ti8Xn1+4UQgHf5I5UX6GowdO5Y1niZNmvTWRGJ6ybjrS5cubZM0bdq0Vs9D0uTJk9kWPFLoCVrxWqbvv/8effv2Zd2zT5484e7qTZ6ZzYO81j48qSpDiIIS7K88ZD+WV1Zboe8UhNSKSFgN6Yn9tpFsK0aeux5+niUPbUNjHGTerbHxIRjulseiMd9gkxtTyGT5wHB7L0w+3RQP2hBlAXnNMRD3YI5Q9QQaylIYIamNI4fI/kwyOQaNRT9jnKwO7jOZqvC2GPpv3IHrCU2F1gvrYei+9zzYRt5yPxwhld6dLFbJlzMCYn9P0XcIiAIEHNPG8gHTMXNkN/QftwF+jYVkc1Lh5WjO3pOuXH/8tlkPLuQbrvGH9tAx2HfpeaNxUJt8G8q9pWEZkNcYhtNEGZ7bbMRf/v4XDFq0FabG2zFuyCCsOh7VeovzWyD5gHgESF4glTH525aJ5NlZs2axHs+WQlSQSP4iQprkJTLrdF09XwW9LiDq4H9cFD3VbREvaK4sf4Vrpj3R58Rj5kcNkp32Yd2ApbjTzDqqijgHbaXh0HjCFMFRR98iINbCOIS85UI4LR4BTTUrxLVa9vKQeXsbeg4ehemLlmPlypVcWgc5JRfEs/tUIP4NATEdToztXhvBiEjZXliheQwmbL42xqEjOlgtMh7LJWz5oWgtIAJi9IZ9sH1ZjYIHayHj6I1EEloVdQob9/sgKScPXif6QsTErUUn2SzcP6kAeTkprF01H6O6/YS//6qMK7GcE/4PBMQZMSmo73RD80F0SYMTGXnpP//5D1tGzJw5s9V33hESycsTJ07E3//+91bzHEnEc0q8KVpaWtwd/hlS4DBjKMYPnoyFjfmAn1aJS+DqsyK20q/OuAPj33/FkuXz0OcvP2DB3aa8R1on3fZKYdhPq6B10BRnrt9/XbjGO0BuyyZsFFgvUWewYNpmaF5NaWZQNJHmeBFmJF/tlsO0X8Rh8bgI9bwK+BwWQZfFK7BA9C/4Zsb1Rs9Aa+QHW2DrlJ8xbNbr97Ry5wncEMTasQJCDfpe5GrzcUNsCLR2O3IDNkTjwsje7xQQ+Y/MIdVrBq6wFueHQ0YxJHNZkQasVatWvVG/daREZmsn/R2bl4Hk/3/+85+Nv8k3RTywrfaR+AMBYbVEBipbbzQKiOFEQJACJdkeEl1nYIG0Ng4eNoN7fLNKqaECkZc3ofcmG0SWvl7gNWQE4PBBpv41UIf4MjFMOMCv3+MuqEJp8EJcbmxZqEGwzjJozlfGI3LobEcsmbcDavatTf6ZByfJ/li7cQv0Dx7k18sHD+HA1sX4v79o4WbGm/boHwqIvLvQWCOJJXufsfU0S9wlrNmkDA1nfh/fkCMzIaVjgsdchoy1mQCRdwiImpd22NBtMpYtGY+u/+wCk9dGKWlBeRQuKa7CCBFJ6B46DMs7wc0aguoQeGAxNiyfjx3GJvz7Zer9I/rr8c1fmO2dSMVfhXuaAyF13AWMvmIoh8/RvuhtfAuZzc3UvEAcZWyZgwZakF4xCyP3+LHfUsq13dgqOhsX+R8fn/hz2LB9HiRvvj248qM8EORjIwVnR/BAtEphCE7PG4UR3dbBgS2jHr4uIGpyEHj3HA7qbmFe8mosZB7EukXMy56iBBN/vnpPd5yDgTt3wzm5qajtqAKCGFfr169nh0QkhtTbEmn1J+FOZPjdj00kbIWEI7V2HpLItRCR+euvv7YqIEjFTIwJ0k+CzCfy+DEx4lqHCAgZLX08YIyoiifykLe/itCCTFxRM4BTYCrzCUXi7EBGQNhHo5x5JmFnJuEXxphevHotm8lJWichDQXN/XCOZ95nuheTH/ph+tWmQqo2/BTkto+DtC/zWaVeguLybugzdRnWcfuTJCm7CXvt/ZHOFHTZ1+egv7YeXFOa8keoxVD02nsB0SSc5D0ERLqXKXQbBUQpgs2kMfCrnzGaMazmL5KDuU+Tu6GhOBhul01hqCiPxYzxKc5cz8qpXfCd7D7cIYVx9QNoD5HF4WuxjSONVcdfh1LvDbjwJL8VAVGEQItt+E5UGo6s1VGGp6dlMKDrPBx2F1Tdfwx5f0QAklmfP2UilWNr+ejbb79lGzTIN0C2aR6n/oaAIIW88TWuzwlDaRKu7u+JAeZPmR+VjIA4AanB+rjfrF8vL94eyppDsNCNeYvRx98QEKW+Spim9r4C4n1CmMpb8UDMhAtzTTnuhpD5vQvGL5ZozJNr166HjIIWzjpHci1Qr8MKCBkDRkAwa4t9sVLyOh7E5SPWShH77iWhuJK0WImwAiL/NQHxOpkBZpgxbCT6yjvyDbvMdwiI+jDsWq8OdUaYNY/5JS29xAgiXiPSb6a199xREhEFpHxqbqA1T0RgkDl4SFjThwkIfgjTPrMALnSjdaqz7kLrm2/xlwGTsHABY8jpPHit9b8qyR82m2QgsWwahgzphambjHDK8R5SSDGT3EJAvGAM900a2Ofb3DAoxAvHCzA9sBnSkxdDfA1TVq6YjsHfroDFUzLyUxV89X/F93/ph4mL5mPaXA34ZL/dcG8MYWpNzQr4swKizB8nXhMQ5yEjoorbqW/9iN6Ls2fPok+fPmx+bKt68VMlQ0NDdsb21hpRfvnlF7bOJeUB+b5a7R/2LgHR8BL6shrYYuzHliH5t4kHQgV2saRuq0TUyf3YLiWBZWN/wK9TxLFj/2G4RxWC11CLmCucgCgjb6YeBVF3ccRYF8pMPhq7nCmfVi/ChHFTMMmIlLGMVLFUgeaoZXBvdGZWImDnMqgtVMMTUmZGnMSCzarQey2PclQH4/BwEYwZNQcr1zXVy+uk5LFd4w5iy98sdN8UEA2Iu8x84wIBkckICA05rLZu1us/6gJWKmyDpiu/df2PBUQtHp1k6hYjIiCYmiaS2f/7f6LbKDEsnDEWCscS39koVxrmhtMKUowNOg59hw3CApWDOO8aiILqfNyRnYkJPUdiUWN5zyQJGShutoI/64Eog3trAuKgM3KreCiL92Lehx62i6/F6CXMvmuWYMr4CRit58c2IiQyAkJ72Dy4Ntecae5QVVbCWss3+7cJ+CgPxNatW9lWmvcd6/9TUVsShfvHLeDfyj3UxNhg76S+0CKes4KH2LdLEmIn+R2ISoJPQnmZCCYs247zdzgjMv0EFm2UwR5PzgNBBMSOXXBKaioss11VIapwAj5pHcPzQkKYiCj4MBf6pyczM5ONyfzb3/7WWNiR/0nHWxIeQFpKyKSEpKXvXX0gBALiPikXywKgsNERN+yNsP2EC4LSiNXzHKcZAXGAFRD1CDAdid8W2vJH4GoFXqon9mv1xTS2iYVPk4BgPqvE41g2ZybkbJu19rUg+eps9NfUZQRmU/54TUCU+cL09144cjeHrfTK4uyxv1t/XHzBFTrM5/vKzQjKjIC4wtachfA3VsDiCZoIyMuG04bF6DfKEN6sVViHmLPiWDNKFAtkzeD2nN8KVOu6FIPVduA6ycKsgJCEiUNTKMu7BQTpRK2PvqMvN7Zc80qe4uSCPvihtzZuvKeGIH0gDAwMuF+fBjJSD2mFE+Qhkkg8MBHNFy9eREREBOvtIi00zWedblVAHHBAqkBhvSYgiAfCEOsHSsCzmSVeG2MF7W2DoeTPvMUIU6xTn8T839SAUHR3EyYqMQIilJy3ADfnDcfO7dZIaMoWzRB0oj6DgJy3VSmtCwhX5qVmOmzH8rGzYfruMvs1BALChggIJo95r5OCg8dtHNhmivtxJajnlcPTlHSSdUdpTR0KX/ri+PmHrXw71Qg+sRsTBmiDDTbMeruAqAo1xRqN3TB/1vQgSX85EvYqLS0tNDOD7969+w2DjdR7+/btY8M0iQee5MEPDWFiO1EfdEeGoEhohcpXt7G7Wx/IOr9CQdAFTOo3Dqr3WjEQmXwT5nQQWyRmY6jYCuzwYcquzGuQ26aATde5L7zRcG8KLKtPssXq6dMwabEkTP24jFXrg3X9ZWD+II8xCZn8sb8XRMSvILn4JWxn98MYBWdktpq/mTqS60R9rFnIxRu8JiBycW3GYGjvvs6N5BOJ84N7wehcUGPH2oaC+9jHCIiDjQLiHCMgtuBW8scJCFIHEZH4tlG2OhKkriQConle/PHHH9mGOjJSGIGEMX1IH4jqcDNIamjiIBcal31LICBafKfZPjDeqYR1M/ugv/pNJBRWIM5BASLbbBHLFGe8ygTc2jEQIlPXYvteZ24kugw4HJqFUfr8BkIiIDRGLsWdxvqlSUA8JqdLt8PCJZpQc2xlhM/6p9Dv8wtUzr7gFvwxWY/MsKfnaDg0thXWI9pGDUqMgHAlt8sIdI3tslhl2cxN0EJABJnMgOzuwwjklHu01Sj01j/eKCjIPTwwZuqW/YyAYMyRqucXINl7Dk6EFCDVWRfD/rUShrHvYzPmws92LzavmQzRxVtx6nkkbq0bjnXSZu8Y5aoALuoDIWd2B6wpxAkIEdM7yCnMgO/eEeg9eRU277zGeYOL4H58Fobt9mW/pWRGQKgOFIN9c72WYoON2xdhHRsb3Tof5YEganjMmDGfX0AUBOLk+B/Qe9kuhLZwCiTdNsHc2XK4Tu6vIhgHGUU1eddzdl3GZWmIrVuK84LmMV4C7DX64aeRi3CU+4haExBlPgboOeME2NDNDgAZJ5+0ABPD6X0nP2oviLjR1NRsLOxI6zExNkncKYnrFHDt2rU/7ETdKCDYEqkYnmvlITFwJDbefM72R2BMd1ZAkBAmYhsWPj6CGf+Yg00PmsnqnCA4GJsgiFlEOlEf2Nm6gFjvwWSkmhhYLJmHAdNNmoUR8fDC/jiu3nzMfLKkbn6HgCAWfFUwTk7/HXs9+E0tda+coTv4B0hcEVh/RXDVHoz+A6fCkRUQpBP1bsjONAMZbLgi4DQWDBTFRFM/djQSn3WjIbXYiDE7ODJuQm/uz/j3un3wILdZ9SECQg8iIy+g+YiLRU8sME/0e3RRtUPce5R5n3oUJgKZB0LgfSCxv6TF0NLSEtXVfCOc5DOSh1qO2//nBEQ90t13Y/o3v0DGWBDDW4FH5oqYK6YKX3KMhAuQXj4Cc48KmrMKcY0RFN9OkYYZ61KohLvCSGzVteZaU1vyoQJiOm4x569Ld8bm1aIYrHW12XDFKXA9Zwebu69aeccCAaEPmxd8Yz7t5iwsFx+D6WqeSCsnebcY7qyA8GDEdy3yH5phxHciEDcIbzGyTRzs9MQwV/EmP945wx1amgoQt2+hZkq9YDS/P1ZrWSNe8JwZyHwexLghfSCEgdDQUHTr1q2x/CIC9cCBA2wsugBSeZJK9EMFBOuBMH/8ztbJ8hQnGPfqiwtkcpiadNzZMwF9xivjPnFO8rLx5LodTjbFgzBZ8hZ0leZjozNT7pS5Y+PabZA6x+XGlycxr4WAqPLajh7j9HGtcVEmXLctwL++XgazEFKSlMHjsAj6nGLKIV49ch4cxOQ+I6Do2np4w58TEKRAr8Ad6SHYZnidMzjTYTfvV8ze4dBoNGU4rcGo377BXq4/YlsJCGEZhYlAPAwCMUtCRkkHajs7OzYKQcAfDuOqLYclVk1ed5ZKfxxZNhDLVc7yQ28ZshgBwYYwJZAC6B5OHPJCWKPHgHn+NgsxarstIgsqkH5bC13mXmJKB4YiRqQs/R7LvZtKjjRnVYxh6r0ph/mNt+8SEAGkvqmLxIGJC7Bk87Vm4XiJsDrmBq+YFDzZJYbhk7Rxt1mxUxRyBMZXHyKj6k0lXvjcCqqDumGTm0COJuGSQh8MHL0CnsT+e6eA4OfAGItpmL3bEI84czf92hJ0mbEF9oJqoOAeJCb8hq+0biGvnt8HQl5EBbczeGgoDce5RUPwz+X7kNCaiVaZiHs2l2Hl0uwBJ53CJvl12BuUhrTLWzFz4FIYejfr/Jhih2O2jgjOIgeswv19fTD92G3OY1cJnyP90OcIIyjSgnFizQ9Y4NbkB8711MGkIV9jNBdSlum6D8u+6oYVJiGcJ7QWT05vwsjVsrBOfr0GaM5HCQgSZ0yGcSUtzJ+b/PAr2CU3E6sXK7LDPbJJVRmyGqdwyDKeeyh5uGewHQO+mYmdpx0QG+uJg5vmYfpCef7221SgJD8PvbovgNzZUHafDLsx+FVJBQ7xTR8ocu5i7dfjMWOFLG6+KPigoePaEmJAkfARU1PTDteq9/z5c3z99dds5iHCgbiLBaOXNOd9hnENOjQBK7Zq4h6X3VKuLML/us6D0b1sfixvQyCO/Po1dp17zg/j4GXg4X4ZjB/EVKRsnlCC3PLxkJM3xBNSKr26g11bf8CwC00GZ+2zw1i9sR8W3+I3MxQ/tIf6jOmYslSBy1crsXrOPBxlCiqyRbrdaPy8WQ3XmzU1Bx7rjv/tOIlw8r3yinD/wEj0mLEWKtaBKKnOhJ+lFMZ1mwIZ5ni79m6DrsJYTOgyDJfYMj0H93YrY/lwAwSyN8UYr+eWQpQxYrSuRCLJ8yy0mPMvlebncSm19ZBdxVxDv20wIxOT1PtCpesS6F+KaDQuq2Lssf7blTjln9uKcZmLB0c08F2vU3jdUVmCF5ckIPrr3zFdy66pv8Bb+NQCgrQOCjoPktZrMhRd84aL6Oho9hsgjRotv4HwUyL4brsxY6yTX3XwOfgz/qdzqXGkLZTEw2bX1/jFhLgpa5DucRhLvh+HOfPVIE7eubwUFk/TwgH7VDYMDZWp8DwkhcmjxvDXHz6BTdLD8KvYChiF8s3ALKeNmDlzOBZpXkVIdksF1oBUB1l8v/oo/LJarhNQhujL+7HkV2UQZ1jqDS1s+2UYbNlyugrhbgexeNY4zJXl54MtEuIQm6mP064prZZHNfe1IbJCE2dD+RVQzfOTGPt/XSFt+ZwV26grgLPBd/hO3wn55CYbchBiowWZGauxlByfS6oqG6BmYQobQRx75j1oS47AD+NWNW5DkpzkbCySMoJzYJN6IN4HYqiR9/e+s+p+bojBRvLclClTcOjQIURFvTmxwccN45oI6+FdMWbYXEg1e378tA3b1V0RU9WA8rTr0P36exzy4WfammQP6Iz/HqLrjRGSm4WA8xqYPmwCJLh9JdYvgYzpWbxgbYYUXFwvhQG9FsLo+iPkBJ3D9LUK0HRrsr7q0/xgLD4bYiul+OeW2YxNEisx9W+9oGwfh4qaUtzZx+QPA2ewg98x+cPHcCp+EFmC3Q+b93Dhk+m7D1tXjoBRILegNZ4dwcTV5Dr4+6c7SmLy9DFYtvsGXuRXIenBfiwSHYtF6zczdbkKDh9ciGn//jt0nfnlfe59M6z4ThpXm/U/+xCERUC8ePGC7cxPwuk2btzIehxaG8HsnQIi1x/75EbiG8Zwbp7X5KXEsHD9Xtx81NQkkXF1On7fJAcrEsL0yh2a8yZg2jJJbh8pTJdZD5vAdNQyq6ui7SH2lxFYoqQF74QkeJ+Xw9TRS/jbKqtAQUkCc8ZNRrclF9gW8OhTclDsNR23GtVBBfy2zYDCZAX48QskZDgfh77YYqyX4a5TYgsWS9jCI7IcvNInMJVeiAmLJaHIXs8mLBCfCXlLX6S3IiDqSxPgZLICo3rNxiZme/0DW6EpPgKT+s6EMykSM25DceMqiJ3kNy6zvDyFOWs3QOkmv6GzMkQfw8SGY5L4aXhHlaDu1SMcWDYAY+eKYzPzraocPYzF0/+DvzKiN5t5KBXB57D6OwnYRPEVQ0n4BSzs/xdM33ITMS2j3yviccdoI1OnzMAG9n62YM26RdhyxgFxpJqriYaDngwmz2S+a2792jXTsOyAFQKJu4Mh764Mvhk/BStkr+NFbiE8TH7G93tvIKssB0H2ipg6ZhF77+R9bNy8HvMnT8LPYqfZxsiMO0ZQ+PVniC1RwzayjdJ6LJirDn2Hd/eF/CgBQYzB7t27IySkZafkz0RZFOy0NaCurs5POw1x+uHrTviKOH9cMdgFI8ub7DjZ9WH3YLWT28fkBsJfpcDnhhOuePFFR0X0VZz3uY9YwTj7LIWIOm+KfVo74BxR2GqLX3tCDCbScZSMUd6RJpIjfWNIXDBx95O88q4ZXd9HQGQHO8DV17+p5TjrKay9ghEjmNmIl4XQ86fx6GVus0xfgGBDPWiyeUIDew6aI1KwsjQJj3wtYB8haJVg6sXcENzxsoFzQtMXXhnshnNagnylBVv/uEYjrTjqCs75PEBccdNzz3p2AWf8nyOPO09ZjBsO6Otit30IX9jUZ8JfXwc7mOPpHzfH4xeRCDpvh0h2ZSVSA+7Dxf4psgWHLA/DnTOMcXg9ms1ryZ6XcGAHP4/vuByE5IwwOFvcgQ97gHRGoDjjSVQ+67Eg1BdGw/2MK55nVLLuytepRHqoPywuPn8tppqlLg0B9gYwOeuAxJYFXgs+pYAgQoEIBtLnikwoV1YmsPybIM+C5B8yAlRL8p5bw8IviJs9uQGvmIL9zKMolAheYk0RIh+dxrlg0vxagQQnMygN0cAVPxd+vtEwguX1Fi3sVRHwttXhr7e4C79n7rgT4IxHmZx4KXqJq6f0sJMpU8Le8DLwUBp7DxZ3QpFe8brYaaIWhTGBcD5/n23pL41/CN9z9ohutLvrEed/BTu5fKCueQZuQc06bbSgPu0hrF39EZ7DCZbqV3hwzhPhKdxs+vVVSHxqAYsnCahsdklFLy5BixyfS9om5/C0eUapzECg80kY7NZq3IYkjUPXEdisMY1AvA9kdBgyzGRHh7ToktHhSOVIPLsvX749DvjjBEQxoq9ehImuNlseNH+GpLzaucsdcYyAqGMMjMenLRD8qobfWEI8ZU+tYWx6HGFs8ZWNsNu7uHJOHZpH7XG30X7kofipKyz0duKE0xPkZsbilrsX/BsVNJ+GV3Y4abiDf27NiwjKy0KE9Rk4BbxCZW0NkgOZ/PE0EYLRoBuyn8HW+BCOPm7m+eAoT3sKX9fLCHpb/CghNxSOd5pdR34YbE/sgdaR24goICdpQILlcewleXznTrhHJiLsvBWCE8rYZ1CZFgZXCw/EFr9Zqv0ZhEVAkJBxEqpka2vb6HVtjXcKiKpshLqdwb6W36vRFTxsaupnKY+9jgve9/CSG4a6IdUW5ge4/KG+A7u9mhorePUZCDq8F3t36fH7BNRl4aGeNn/bXQdh5Z+EjJd+MD97n+2gXfTCC94Xr6Opmq1Duu8NeDl6sX0LBeS42+NIYxnngOfN52jK94e5sTY02OvRxB7H6MY6r1VK4uG5h7+98fmLCAwJQ+BFR76HvTwB3l53cOt5o0uEOf5z3LzrCZ94rtCtyYTzxSPQ0bwAvxh+WVufdAlm+zXZ56HlGoHEZ5a4GBiDMqairst+iTsW7ojKF1iIpYjzMMLBIy6Ia60+rY2D/+WmckDz9G0ENJkm7PrblgbN1t9HavP2p+JYWB7ZD60dTojIK0dK2HlYBMQxNTwhF48NdvOf1c4DOOOTgJyYhzA/441U5mtKur4H+qNnwvKuD06QbTT0cdEllt9g9g4+SkCQjEo6vpIYwo5kuH5pEAHXtWvXDjeONYkNJvGYzd39b+N9BASl4/IpBQQRomQI16ys1q0R0ipMyiEjI6M28MCVI/7mYawfpAW/tzkHKH8aQd8HMqBCcXGTK72jQgQEyXOk1feP+DgBQfncCIuAILNPt5yAtTXeKSAolDdghLrjLuwYPBfOzQXLe/BRAsLb2xsyMjJsByQqID4fZAZq0sr/tqnthQEqIISb9ugD8TaI4TZ+/PhWvQ9/HjKB2wEs7boFd1u0oFM+HOJ1IENLkrk6OhtUQAg3wtQH4n2gAoLy52hArO12bOk+HlffjEZ8Jx8lIMjIOSQOr3fv3u8MT6F8WshQgmTIwY40H8efhQoI4eZzCQjidRs9ejTbsbVt+v/UoSQ5HPdvBCLj7VEClD8BCTkj3gcyUpGw9H34M1ABIdxQAUH5suGhJCkYgTfdkfwnx0P6KAFBYkTJilGjRsHGxobblNKekPAlMhMv8QYJsxeICgjh5nMJCGK0kckT28b7QPkUEO8DmZ/jxo0b3JLOBRUQwg0VEBTKh/HRAoLEJ5ODkKn8Ke0P6aRM5k/Iz3+jC6xQQQWEcPM5BASZ94F4H8h4/M2HMaR0HATeh3Xr1nVK7wOBCgjhhgoICuXD+GgBQVq9SQvTTz/9BA8PD25zSntACjwy+hIZmaa14dyECSoghJvPISDIvA9kHpr36aRP+TyQPg+DBw9m53nprFABIdxQAUGhfBgfLSAIBQUFrAdi0qRJ7GyxlPZBXl6ebYElFZiwQwWEcNPeAoIMqzlu3Djs37+feh86KKQuIBNckgqms3ofCFRACDdUQLQdDZXJcN2/FGIzprJzp7yelmOjhh9/uPBX7jh5ThlGTz9wRLasNKRWVeBPhuw30pDxAJbnlaD38M9HbtSGW0PB8ALc4lqzdRuQ/eAYxJfMwrSpLe5/5lJInQtDbdUr3LPfD7kLoY3DzpZXlCMzvdmMm0JCmwgIAhmuk3SmPnfuHLeE8ikRDN1KnndnMKCogBBu2ltAkEEDiHim3oeOC/E+DB06lP22OzNUQAg3VEC0HbUFgTix8mtMVT0FB+a7J99+U7oD74fp7Pxa9S9PQUapLxbebDH5xPuQ4YWty47jYmjOH85T8DbqY+2wbUt3TL3ybsO3NRryo+EbHIWU4lam7OTVIMZWEt9M3QgTG4fX7/+mKzxf5qKhvgyvYoPhHcn8z+xSHHkNJ/dvhtUz4YsiaTMBQcb2VlRUZN3VKSnclPmUTwIZbYnM6kxSZ3FTkg+MCgjhpT0FBJndnAzbSvo+0OGjOybE47B48WKsWbOm03ulqYAQbqiAaDtq8oNwdmM/bHd/93wVdZGW2Kw2EmtcPmDo+XhrDOqqjWMPPnzY+vp4R2hqDMKC639y3NI/gleNWAcliGy5Cv781X9M7iMTaEiMgUkYt0CIaDMBQSBDuYqJiWHhwoXs7LGUtoeIB3Fxcfz2228ICAjglgo/VEAIN+0pIIj3gYz8Rr0PHRcy4tKwYcNYY6azQwWEcEMFRNvBCgj5Pth66xU3Y3rrNAkI/szPdclXsXftKExWPIZHZDKzfC8YbJrNlvMkrTVxQjxxXeT6YtPyMfjvv35Dd9GhOOyRgJLsZzgpfgkOF3ZgypypmLLbFXl1Nch/bIEJ40Y3HmPiYkmce84fm7shQSAg+LOo89JdcFB6NCbIGsKLfWzxOL1HGqO5fUernIR7Bt/fUfviAmT3nYdrbCsNI5yA6L3JGi/L3vIEypNx18YAcrYvUZB2DweXdcevP36NbuOksdezAPWp9th9dAtMQ5ps6NIn+6BwVB9XE8ivKNhsvgK7IwewXnIyRkkch3/65xnCv00FBOHmzZv45ptvoKqqyi2htCWHDh3C//73P/Y5dyaogBBu2ktAEO8DyScGBgbU+9BBIR4HMrnoqlWrvog+cVRACDdUQLQdAgGx5XoyapnymZTRryVuO1ZAqI+ChHcDkGUP7bmDMGvNadx7kYiCokDoSe3EKjUb3GfsgUcPLLBlohwOXgxDcU0enrvsw4BuUlA2d0JCbjnqUm5B5qe+6KF8ArceMNtHZyLn+Q3snLAR+ld88JAc4/41HFg/Hv3EjiOMRB4lXWMExGAscWMM77zb2Ld0IKYuPga3sDjkVqfCRWcnNq03gSPZ96ErDMUmQGvPVZDYGt6j3Ri4RhvnQlqZaVQgIBQu4HlRbYv757YpjoCV/iqI6viipjIXoZe2Yf38Ydhy8RlicmtRHayPhYrjIH+vqd9YwR1xDFNcBZPn5FcYDo4dgR/mqOKEpz8ehCYiv+rzhLG3uYCoqamBmZkZ/vnPf7LGLqXtOHLkCL7++mv2b2eDCgjhpr0EhI6ODkaOHIno6GhuCaWjQRo3hg8f/kV4HwhUQAg3VEC0HXUlL3BmzTf4qUd/DBk6lO0DJUhjF0nD8jm/2zAREMq7ZmKZ+QkYLx+MGeKXESmISHpli6X910DiYAS3AChNTkdWTjm/z0OaIyaIGuBMMNc4kXodir1/goJ1DNungFBfnoeUqOzG30AFXl7UxcJ+arhPLoERELt2T4TYiTM4tnYQJi2+gLAszsKvDoaW2FLM2HgdgktqyEhETlouiP+iNmAfxsjsxcWw1sK06pDksBG/dOuOfoOGNLv/8Zi7zBHxZJOyGNgaS2LEHj92j5KQU9BTmAHzSPYnqoMMsUp1Brb6NjW+FHpswERVKRwPJ79ewmRqdyxSvcQKms9JmwsIQm1tLQ4fPoyvvvoKW7ZsYccCp3wcR48eZZ/n9u3b2bk3OhtUQAg37SEgwsLC2DlPaN+Hjgvp+7B06VKsXLnyixmRjwoI4YYKiLajtiAEFht6YM1hNwQzz5M8U0F6HhmL7HJ+uV2X5ACdFV/h6x+/wdc/jYb0xUR2OUtNOty2rMH43/pg4ABRzNW+iBfNi5I4W4ztuxvHH2SxP3kpt7C1z2qcf5DdOKoRHx5K4lywf+AgDBo0EP169MKwkboIIH2VM+/CaN1/8d8fvsM33w/CCvMo/i6EhkqE2qpCbMDvEB3YH30l98Ehuam7ds2jdwgIXg3iHBTRY5U+HP2Dm93/c0RE5bEdyFEaxRcQen6sRyYv4Ci0N0zF4RCykuiXVgSEZ3MBEQajyauw5+hD/ohWn5FPIiAIRESQlvL//ve/7Ak68zB+nxJSCZNwDREREbb1lXRW74xQASHctIeA0NXVxYgRI+is0x0Y4n0g76gzz/vQEioghBsqINoOfifqvlBxfffoSnXJtlCd9BMmSlvB1nQjJKcrwDG5WaNQeT4y4qMQcdsACyb3hYhofyw0uI4YIkCYfcf01cVxf4GAcGIEhBzOPxQIiAaURFyG/ID+GDhiNLadDkBE5DPcPaqJZUO14U82ynLG7tnfYeSKM7A7qQzpCethE9vs/A2lyE+NReRjO4gvHIcufQegr+xRuGU0gBdi9A4BwXWi3myHuFYGaWIpaV1AHAnlr64OOoCV22dgm1/TsK7FnrLNBMQzRkDIYM/xx51XQBCIiLhz5w7mzp3LdqhzdXWlLYd/gqSkJLZg6969O/vsqqv5HYA6I1RACDefWkCQyl3gfaB0TEjjxvLly9n0JXmdqYAQbqiAaDv4fSD6Qvl2JrekdeqiLLF5y3CsdWNsmoK70Jw+BhM3OXAhOTWoaBbTX1GYhQSHzRi+XgcXXzLlSsYVjBfZDfNHnPnMCggZnPPPBmuz1xcjxGoDfl9+DA+TssGP1yjBg2Mq6DVEBwFko+Rr0FQeiEU3S4BSPxjMH4uR660Rz5qn9aisrG0cIra2LB9pQeaYMGwbNK9lojrSBOP/QED0VrDCi+K3DMvaQkDkBxyB1oYpMOVGYaphBMqKzVOheE9QhvIQdXY5+q+V4cKciICQgu6xgM4tIASQSZ/I6EwkU5ubmyMn5wPG/v2CIB/+5cuX2aEqiXhwcXHh1nReqIAQbj6lgCCNDsT7QBoh6MhLHRcy8tKX5n0gUAEh3FAB0XbU5AfitFRXSJ4LQlpWFrJeS9nIKyhnjfy6iLNQUB2CFa5kyKV6JDqpY+r4cdjomIKyPDeoLdwIxYN+eJWTi4LCQvgdng8pg5N4ks8Iiwo/aA5dgz1nHyGjvAb1KTeh+LsEzvhl8QUErxihZzei73Aj3MsqQn5uBiKcjSH284/oNmA7fIiiSHSAmlo/iN0gz6geaR57MXcCI2isY1BaGw2TTYpYrGKLF9k5yC8oRJKTDCapqsM6ug68kP0YLrEbls9aFxAxVzaim+x5PH+rgIiE9QFxDNLxBtmCzEmxXWUI5ltHobCkBg2Z7ti5ZCImyJxHKHlu6Y+gtUwEfxsni3Nx5ACh2D92LbQPPwR/DKvPR7sICAJpkbp48SL69++PsWPHws7ODhkZGZ26Vf3PIhAOxJDu0qULtm7d+sUYTFRACDefUkBQ70PHh3gfVqxYwfZ/+NL6vFEBIdxQAdF21JdF4qJcT/To3ReioqIt0nDMX38WbCN6vB00dWdhowdnAjekwkVjIbpP3YIziZUo9NPB2ukijfv2ljWCS1IF1ym6DPf3zcHovn0gcT4Q2Ule2DNBGZee5PIFBHioK0nGTd3+6MfuPwTTl+jC2v4YtEaI4fgLZpM0VxjoTcY6F85TwsuAl95K9BwvC5OoWpTE34TyylHoy52/78wtOBWYjloec4+BhzFn2yFceUnETwt4NUhw2oHRapcRWfIWAVEaC8cTmzHz4EO2UzbqUnDj8Cr81msqFPY8RTmvHqVBx7F1fg/0IeeXOwTj4xuwZq8KzrFjh4Tj+KItMLYIQmvduNuTdhMQBNKSSAxiKSkpdhZl0sKuqanJHocoVFLx1NUxCu8LCHOqr69n75d85GT+DCKoyHTn5LmsW7eOnePhSxJXREBMmjQJwcHB3BKKMEHCFMn8DG0NmWVdX1+fbXRITU3lllI6GgLvA/mOvzQEAuJT5H/Kp+fs2bNYsGABFRBtAa8BNRUlKMzPQ25ubouUh4KiCrbVHQ01qKoqR2Vdk63Hq65AYVEJKtjYoWpUlDQdI7+8ttmISszutaUoKshDUQWzvKEOVWWVqKlvYTfWFiJfcN7iKmZ/5tpKS5hzMusaapnzl6GitumovJpKFDHnL+dfIKrLC5HHnT+vqBKNh6+rRnllNWpbno+jobYKZSQE6m1mLPOMaqsrUVbN2Lrconrm3ovyC1BcWsstI/eUzz9/cSWq66pQxVxfNfts6plrY/6vqW/c/3PRrgJCADGc/f39sXv3brbS6dOnD9vCSC6GjDZkYWEBNzc3NvSJGNfx8fFCn8h9vHjxAj4+PnB3d8fx48fZuTJmzpzJhikNHDiQfRGkBZ4MhfulQQyPIUOG4OrVq0hMTKRJyBIx8D+FByI0NJQdtlVJSanV89L0+RMp18jkocuWLfvivA+E9PR0rF69GjIyMq0+H5o6diLhkbNmzaICgkL5k3wWASGAtC4WFhayxzEyMoKCggIbxkIEBRl1qFevXmyLPJl1WdgTuY+ePXuyH/aAAQMwaNAgtsIxMTGBh4cHO3M38b58qdy7d48VUt26dWOfD03ClX7++Wd21DXyTbcV5HsgfaZ++uknNvSxtfPS9PkT+W7J+3FycuLe3JdFZmYmpKWl8euvv7b6fGjq2InUz7Nnz0ZERNO8A8IMFRCU9uKzCoiWEOODjNxEMj4ZgSgkJIQdFpC0Sjs4OAhtItdP7iMoKIgN1SIeBnKfbWlsCTukPwwxQEiHcWdnZ5qEMJH8TYRwW5GXl8cel4zkRkYha3k+mjpGIt+tl5fXFzs4BglxIOUWzaPCmch7u337NlsHdQaogKC0Fx1KQFAoFAqFQqFQPgwqICjtBRUQFAqFQqFQKJ0AKiAo7QUVEBQKhUKhUCidACogKO0FFRAUCoVCoVAonQAqICjtBRUQFAqFQqFQKJ0AKiAo7QUVEBQKhUKhUCidACogKO0FFRAUCoVCoVAonQAqICjtBRUQFAqFQqFQKJ0AKiAo7QUVEBQKhUKhUCidACogKO0FFRAUCoVCoVAonQAqICjtBRUQFAqFQqFQKJ0AKiAo7QUVEBQKhUKhUCidACogKO0FFRAUCoVCoVAonQAqICjtBRUQFAqFQqFQKJ0AKiAo7QUVEBQKhUKhUCidACogKO0FFRAUCoVCoVAonQAHBwf0798fVVVV3BIK5dOgq6tLBQSFQqFQKBSKsHPz5k385z//gYaGBvbs2cMmPT29xv+bp7ctFySyvnlqbZvmqeX2LVNr+3SEtHfvXhgZGWH//v2trqfpzaSvr4+BAwdi2bJlyMjI4HJf61ABQaFQKBQKhdJB4fF48PX1xZIlS1jDTpCWLl362u8/Wi5IZH3z1No2zVPL7Vum1vb53GnVqlWYNWsWvv76a/Tq1YttUW9tO5peTytWrMD8+fOhpKSElJQULge2DhUQFAqFQqFQKB0UIiAKCwtZgy4xMZGm90jkWXl4eGDIkCFQVFRkw3Fa246mNxN5djExMSgrK+NyYOtQAUGhUCgUCoVC6VQkJCRg2rRpbAgTpe2hAoJCoVAoFAqF0qmIjIzE5MmT2X4alLaHCggKhUKhUCgUSqeCCohPCxUQFAqFQqFQKJROBRUQnxYqICgUCoVCoVAonQoqID4tVEBQKBQKhUKhUDoVVEB8WqiAoFAoFAqFQqF0KqiA+LRQAUGhUCgUCoVC6VRQAfFpoQKCQqFQKBQKhdKpoALi00IFBIVCoVAoFAqlU0EFxKeFCggKhUKhUCgUSqeCCohPCxUQFAqFQqFQKJROBRUQnxYqICgUCoVCoVAonQoqID4tVEBQKBQKhUKhUDoVVEB8WqiAoFAoFAqFQqEILQ0NDdx/TbxLQNTV1XH/UT4UKiAoFAqFQqFQKEJLVVUV4uPjWaNWIA5iYmIwadIk7N27l/1NyM/Ph4+PDxISErgllA+FCggKhUKhUCgUilDj4OAAUVFRmJubIzU1Fc+fP8fMmTOhr6+P4uJiPHr0CIsWLcL8+fMRGxvL7UX5UKiAoFAoFAqFQqEINcSrMHXqVNaoHT58OHbu3Ilp06Zh7dq12Lx5M7v8H//4BywsLLg9KB8DFRAUCoVCoVAoFKHH3t4ef/3rX1nDlvwlgoH8L0gLFy6k4UttBBUQFAqFQmlTcnJy8OzZMzZkgCaavqT08OFDPHnyhI2/r6io4L4ISntBjNo5c+a8JhoE6T//+Q/Onj3LbUn5WKiAoFAoFEqbYmVlBREREQwYMACjR4/GyJEjaaLpi0hjx47FL7/8whqxZBQgSvtja2v7hueBJOJ9SExM5LaifCxUQFAoFAqlTbl48SIGDhyICxcuwMvLC+7u7jTR9EWkBw8eQFxcHBMmTGC9EJT2JykpCWJiYq+Jh6+++gqnT5/mtqC0BVRAUCgUCqVNIQKCjL+elpbGLaFQvhzMzMxYA5Z6ID4f1tbW+Oc//9koIMjIS0RYUNoOKiAoFAqF0qYQAUHGX6fhApQvkaNHj9IQps8MEQtz585lDVzifTh58iS3htJWUAFBoVAolDaFCgjKlwwVEB2Dq1evsgbuggUL2IEdKG0LFRAUCuWzUltby84OSobWi4iIYCtdYU8pKSkoKipCfX09d5dfFlRAUL5khElAkAnXOku52zxFRUXh7t27bMd2FRUVtn5pbTthTeSdkURm3yaT5H0OqICgUCjtCin0Ll++jAMHDkBdXR3S0tJYunQp20pE4lTJ30+dyHk+ZSKznS5fvhyysrLQ1NSEiYkJnJycvhiDuuMJCB5qM57DztYbsWXcopZUZyHU7TwcA9NRxy0SWhqyEXzDC4EvclDD/CwIO48T3k+QVg7UpT6EvXc4Mir+rLhtQF6YOzzPXkYsc5w3qM3F43v2OGpqCAN9fXb2X5IMDF0RWcBt8ycpK6zi/hMuhElAkHc0ffp0ttxqrawU1kRGXFq2bBlmzZqFiRMnYvHixW+U08KcyD2SPLZy5Uq2Tv0cUAFBoVA+OWROgPPnz0NBQYGtrMaPH88mUhCuW7eOnSVUT0+PNbQ7Q9LR0YGioiLWrFnDdqYk90oqMVLgk9YwOzs7tuWos9LxBEQDyu4b4+t/zYPi0YfI4bUwnhvKkOC5G4N69obIDk9UcouFltoA6AxYhh0mASC2e46/PtQdPRBfAuQ5KeCnVabwyfizd9mATH97XNlzFM9KuUXNKXkAuWlT8GM/MUhISUGKS+tnrMIy+XPwa1V1tE5deSqeuhzHJb9sbolwIUwCYvXq1Rg1ahQrJFory4Q1HTp0iE1HjhxhE/m/te2ENZmamkJJSQk//fQTXr58yb3N9oUKCAqF8skIDQ3F9u3bMXjwYNaIXrJkCQwNDeHj48PGpJLwpc5OVVUV0tPT4ezszAoL0rFv3LhxrJAiXhiyrrPREQVEeYA5ev4sjw0Km3ErtxY8bg2hriAVnlpLMFhqJUbr+UI4272b8xxGE9Zjz4mnrIBoTtptVfSTPQn/rDa+y1JfyE/TwoajLWb5LXsEvcWiGLvjAp4XNXAL/4DiYJyR+g1q96u5BcKFMAmItWvXsp5givBBhEOvXr3w4sULbkn7QgUEhUJpc8gIGKSVZNCgQax42LNnDx4/foyaGhJQ8WVD+kaQuRG0tbXRu3dvdrjTEydOfLY41k9BxxMQ9Sh9eBL9e+rjrONuaF+MRFEtZ8zyKhEf9BAqqsa4Yj8UI/f4omn+4HokPLSGyrZt2LZNGXssXRDf6LzIRciNewhy9Yb1xaPM+m3YrumA0FygNs0Wh3cz+yirQ9s9BkXcHsUxnjjl/gIh9/SwS52s34kDLsncWh7KMmIRauGOJ/4OUN6mjUMnn6GQXdfwjusg1CLG2RJ7VMh6FVzxtoXupG0wNH/K7l/43BJmPvwQprw72/kCIpsv3uvjrkF7lxZ2eSTwRVVVCtw1VNj72aa6F8ctk5inQOAhP8wD985dQWxrEyyX3sfGGWpYtz8YLc3+hpi9WDBZEsc80tmQKkJF2FHoaynzz6O8HTr7nJFEVtZkwuf4akwb8B2GL1WD0e1o5u4YKl/h/klV/vbMM1DVPIrL7h2zY6ywCYitW7d2qvLnS4HUqVRAUCiUTgNpaSdGMZmBmMT/R0dHc2soLSFlLQl16tq1KxujGxQUxK0RbjqkgHhghv59jXA10BtGisZ4msNvgeeVx8PnsiQ2X3KD/4kfMELXlx/CVJ+Nh/bmWLtUFQrq6lBXV8GGRfOgsecyIlkrOAbnls3B0J6LsULHkG3FXTNmMhYsUsKh05rYp8/ss2Ux+k1YgrP3X7FGdYajDP47aCwGyC6D2k6yXhJTFi6BdmAWs5aHwiAbbPu/oZijqodt6ntwxOI5iuuy8PDyyTevQ+8KIjknQuYtQyhPnIVlCmS9ArSXzca4n2Zj18UXIF0+Ys/2w7eMQPJnTlPmroZ+cqfxlLEXeQnXsWXWFEzYoAk9ryTUlaXgoZU05BdsYu9HXW41ps+Yj51P8pmj8BBpsQlKvabiZmuRRe8QEEACzo6Zhj3HH4AcqTLCAbIbxbBWSZl/HuX1mNKzL9acDUR+TRb8T63HzMHfYeRKTZi6xqKuKAq3zi7B5HVS/O3Vt0Nm4jgM7qsBm6TW1MznhQoISntABQSFQuk0nDp1Cr/++itbKT158oRbSvkjXFxcMG3aNIiIiMDKyopbKrx0TAFxAv36muJ2bBKemG2E8aM8EB9ERcJDXFmuiKdp4bh9eDojIHzYVvLyuKs4tGEWdt9s5jVLuArlyVJQvJjC/MjElfWD0G+UAlxy+atrfVQwQHQ4lC4L+rfE4/SgH6F21J/1QuTeUkK3ryZj9S1B2FolAk+uwaiFpxBd2YDSF+ch/79uWGzZ9NzKYy7jkMyb17F1sjSUrNPAq3qGA2uXQELXmTXOCZmXtNDvp1HYYPmCDcdKsBmH3jrH8SSHsfM9NDBg80Xc87uMneJLsHT7dSRxvcbLYq9As98v0H7G/02uL/yxOc4/I1fPQ6y1OnaMXAxX7n5f450CIgVXpohgl7Eb89SAqlhXnHCNavTMEKLOiOHn9ecQR15KZTgubh6AXQ+4I5XEw9fTHHbksQuIscDquYOwrNWL+bxQAUFpD6iAoFAoQk92djY2bNjAGsC6urq0MvoAyHCKxBvxww8/YP/+/aisFN6uvB1VQPTtbYK7r/KQFXIU8sZPUVVXjsSAK1goH4Cying4mMphuK4vKyxyvI9g2+BfILZOGhKMkbV27TpISi+EyPfTMH3TY2aLDNisWoKtyrZ4xZ6DIfQoJm86gHOswU2Ihc3oPth76jFrLGc5bUNfsdMIKmqKP6qMuwWdLtNgHV+NvGeW2N1rGE6GNfUVyPA0xVZyHRKvX0fv76djtnI4CpOMMGerLPSeNssvDYFQGb8eauZBrAeiUUAwtnaFpwb6jhmHUf2+wl/+ugMPmvVtrs4NhtXSweg6bgnWSW7FXvPmHf3rEWOt9hECoid2HriD1+YmL3uCHVs2YK34GiyeNgxd5O2RwgPqcvxhLtsP212JZ6Y51XjupMd/DovHo9+8mdjoJZBNHQcqICjtARUQFApFqMnKymKHYe3ZsyeuX7/OLaV8CKRT+cGDB9GlSxdoaGigtLS14W46PtbW1h1TQPQ6CLfsclTmB+OYoikCk2Phf3kBFPwZM7ssHtdMJDF8zwNm+xpEWqlg0U/9IbfHGMbGgmQKs1OO8HtGehbE4cIqJaiqOjcaxQ2BhzBRRgcnn+ZxS6JhNUoEegIBcZsRECqWCC1oGjygLOUmTJhv50xYJXJDLaHfZzguNUb9VeCF5TYsJNeh2/I6ruHhi3Lk+StimtpyGD1rNvhsQyiOTJLBPkZAkPO+JiDc1SDyjQhmy6tAYtocbLgTx+9jwNKAwoR7MD9yCLsVlmDEX0Qxe9026JlFoxI8xH2wByISZsNlcMwmjBU0tbFO0FJaj5WTlmKJ8j4YHzSCxrqp6L7RHsmMdnpDQFS9gt8lOUgsXY6FM5WgzTyDQ+orMHbZVMh5UgHxMVABIbxQAUGhUIQWMsLQqlWr0KdPH1putBE8Hg8WFhZsvwgytCL5LWx0XAFhDOfMWvAa8hB8bhN22d2C1WxFPCRWbXk8HBoFRB0izylBvO883Hrr6KNROLdqI5RVbjV6IP5QQNxiBMTYo/DPazL2y146QK3rElxOrWEFhJ7IcFxstDur8cJiE3Mdc996HXWBhpijpACdB+QMHFX+2DCGMQzNg0F2ey2E6e529FtwAD6Z5Ui+uhr/GrUI1+OahUcJaMhGyEUL7JNfhFUikvCrApJsP0xAVARtxdR1+3ArgqypRKDxBExmnt3eo3fxilMvSfbTIaJkjYR65p6y/WAm0w+abvznWBh8AbuHfoe1uhdxS+BxSLGBnMJoSLhTAfExUAEhvFABQaFQhJZjx46he/fu8PT05JZQ2oKGhgZ27HIyxve5c+e4pcJDRxUQfXoyAiKdGMt1SHPZhu9GTsMEWR+2VRwVsbjKCIhhu/l9ICrjnLB7ykhMVb3HjYTEkOOMo6bbcNiPDI6aCMtWBMSElgJiZO9GAUH6QHT5ShSjz4bzVyMHrrpTMED+KjJreSgIOYs9vYc1ExDMZcXchE4r13HYVAWHfZjzlCXi3Pq5WLnxLGK41RGG0vj9q0GQv/iS6wMxFr0EAsJdDX03nUVgASNMSyOwd/E/MHyJI0j3gppMP1hLb4ZtVJNoTXIwxLT+2ghjDP3ES4yAGPE2AUGGcd0BaZMWgyZku2LzlEGYedQVjEZiKMC1TV0w9HDTfBsVj5jnNuBv+F72EuvN4RU9w2n13yHmyO8rkulmAIXvR8NSMOhS5TPYbeqNbwdOh9LDZsKpg0AFBKU9oAKCQqEIJSRcicTrk47TlLaHeHdUVVUxYMAABAYGckuFg44oIEp8TPHrj/q4+YpvthaFnMHif34NeU/O2C+Lhu3+leizw4MbxrUCKY+soDB/LEbMmImZM2di2vSZWLL3NB4kki1icHrBeihs4hvfhIbH+zBsjTqOBggs7EhYiP6MnccessZ/rosKes6TxCLFMZg/jznm9MkYrLIft1+xEga5j82g+XMfnH1tXqgKJLd2HfrMdSTw3RLlYXdxbtkCiE0k6ydis+QyzPxpIbRPB6OEWR9nOQg/qZvgUTZQ4roZv609Ct8sftN/ybMDWPyXPphm5I2c0jj47F6LqX0msOeZOXMqZkzXgqlXHvMEeYg+vxnb+s2CU2ujp5Y8gqLYRPyv60hMZ/flpxlDV0BGxwkvX3FDRjHyLOulJTaNGocpU8g2czFLVh07ldfgfwNUcTutjnldxXh8fhH+0mMyJBQ98SovGm46kpg6dBr/mKvWYr22AtaOm4vpGo/R0QL9Or+AKEGkqyU2qtsj5rXhhJsof3kZ+3ap4MQD4ZwM8HWy8Sq1nvkGmNxbGIQbipvhGlHB9pX6nFABQaFQhI7w8HDWsCUzS5eXvzXGg/KRFBYWsobIrFmz8OpVY1fdDk/HExA81BUk475vArKr+BZPfXUu0u8/QDbfdgfqypGRGAb/WGIsC6hDduQ9XLGzY2cPt3d6iIjGiJkypIaGIyIiq3HiOV5RAgKexyClSBASVIZXD+8jNqUQZOq6tNsq6KdkBZ+n13H9CnPMyzfgltIUPlRTlIrY+/5IE1xTI29eR2SLGeIqo4Pgfpmsv4zAuFjEPIlDUkoR27+hIu0RfGOSQC6rLjcSfi9SUFAtMH8qkHTvDpwDkvn3UZuJxw6X2fPY2Tngzv04bu4GHsrSIhH1MBg5TZfcRF0xosPuw+nGVdhz18mmq0FIe2OkVR5yvN1w3Z5scwU3AtNRU5oGP69nSC7hX1d1Tixcrt2Ak1si66loKEnE/av2/GPeeYjneSXIefEMDwOzuOvrOHR+AZEL/+ObGcNxFfStH+ANPVnyHBd1puOvvy6AtG0Ut1A44dVFw3nTcpx1yWDzWXX6Tez9/icc8i5uVk58HqiAoFAoQoeysjI710PHMRA7L2TW7h49euDQoUPcko5PxxMQHYEGpNzcChE5C4S8IRAonYnOLyBy8OjMPvz2ozwOWurjTovBsrL9H8BGfTZGq8pC3kYQWCesBOJE119gdCOV/VWb6QLjXn1wwq+ECggqICgUyp8hICCA7eBra2vLLaF8Skh/CC0tLUyZMgVRUcLRmkcFRGswAuK6In6XPoXHuR2tzZzSlnR+AZENP7P9GDrKEHaep7DH/HnTSF5V8ThnfQd7Dm6DkclErLVK4FYwVEfhqNZ6jBs3jk2Sx9yQLPgUyp/hnNwhXL99EwfXL8dkZv34KdNxISi/yVDnleLJ+ZmYRPafugLi+y/C0loSSh6kr0w5om9Y4YCSDSIbxyjIxUPzEzi0xwVki8pnJ2FzRw8nd+pCijnGNssHCPc1wWYLc3ilNQUkJd/ZhHVWNxBVGIc762Zh4L//he6i4zDbOhBZKXdwuE8/RkDwWwHqMrxwaMIkLFxnjhA2OrIYQY76GM/d47hx4zF/y354kQlQGCpfnMYuy0M47ngcB+X520yQPATnuD/vyacCgkKhCBULFixgQ2rI3A+U9oEYIsOGDcPu3bu5JR0bKiBap6YwGc8Tc1BWJ3wja1Heny9CQBzXw+Dp1vAOdYO5mjFCuTi+isjzOHNGDTc9T8JEazDEL3JlQNZd6Ihvw1oNO7h7e8Pb2xGH5k7DFr1riCWDc1X4QF2kF36buRNWLr7w8vSEjdZsDBpnjvu5RBFUIe6aDsYNksXhO57wvOeM46pT8G2PXzHkApmvpBhPjuzEisG6CGhUM6m4rqQAifknEcv8qn6siqWj/oc5Mudwhzl+cEIOEhwWoM9WJdg068zx8kx//LzDFE/ySpERYAnV7r9Cbo8tPJPyUZbugkO9++FMcCWqM3xxYPwoDFI4Cb+AWBTUlyL65kkoTdnKXOM9eJH7vGkCialjMH3bbXYSxdqg3Zg37L8YLq0NV3/mPjyvQX/qWEhstsSLP9mZhwoICoUiNLi7u+Pbb7+Fk5MTt4TSHpChXMnkcuPHj0dwcDC3tONCBQTlS+bLEBC6EJ3siLi8YLicUsOhYGKAVyLivCVOy19FTqEbdqisxTprYroDiQ6y2K6kAtfkJvFc8fAIpgzagUOeWUwh9xi7h/6Clbtd0BgRFWeH1b/KwvpFMcoLH+LUyH5Qv5DW6JEof3YG4jNFMM6GeDlKEGS+F5Lj9+Npo4BIw+3tKpBfeQ5EYtQ+3YFZM4dB4UpTf7KcW0swRH07Lsc1CYjIC6MhsvsEgth+Ri9xbqAIjrjwr6o28w5M+/eD6ZXr0J8wDsPV7BDRGJJYh7KsV0iMEozCRsjCLdWNWCZ2gh0lrT5YF4vnimL9ufDGTtg5lxZhlMIWXGp2De8DFRAUCkVoIBXNwoULkZnJ+WMp7UZERATbcd3c3Jxb0nGhAoLyJfOlCIg+4y4jg5eNx7dOYseRcKAhDpYXzCBlmwde4V0oqygwAiKO2b4OQbqrMaPbrxg4fBiGDBnCpKEYMbwvvvrHehx0I8Y5IyCGLIepYzQ7dwmhJukWtolsgE1wNnIjLmNTt3W4Ft+oDoC8QBzXFsEY67cLCGdGQGwUCAh/Vczatgx7nzT16s+6tRRDWwoIq2YCghcE8/69YOSYwA4yUJ/nCYMfv8FPv/2Mr/7zG2RcGwdXfo3MexZQHszc59BBEPlFFPPWX0QSs7w+QBPzty2AToBg6AUg/+5qDNPYDMum2Kv3ggoICoUiFJBZkUeNGgUjIyPU1/+5lhLKx0P6QixZsgQSEhIdfoZqKiAoXzJfjIAYa4NUNCAz4DbO7rWAX6gjbE+shg1pX8q4zQgIOay7RMzmXFxdPx6LxTbDMfAZQkNCEMKk0LAIxMZmoaSSqU9KfaE9RIYREDH8eVkYquOvQ0lEDpdCGAHx3A5yPRVxPb7ZNIW5gTih2yQgAs0YATHBEEGNdng6bqupQq65gFBdAf3AJuM96+YSDNVQw5X4pj4Q0a8JiECYi/aCMScgGnLcoPVLN/RUPgmHoyoYMlUf3o3zolQg0e0wlgwahCEzl2Df5VCEPvOC+YYNWLf0DIiUYgWE6iLoPBbMgkKmdVmFEWpbYBVFBQSFQumE3Lt3j20B9/X15ZZ8bnior6lBZXkZa1C/nspQVlX74eN08+pRW1eHuoaOFatOJpebPn06QkNDuSUdk7YTEDw0MO+htpbMQvBp4TXUo47JT/Wf65XzmPxcV4Oaz3YBLWGefW0Nqsqr2ZARXgPzPdQw39R7XR4PdZUVqK5+2zfI/3brWrvXugqUl5Wh6j37ifDqavnXxf3uCHw5AsKaNcx5mU/haq8ICQUznJOwRip5damcgLAmW1TBb+tsLJuzAz5vjEDGvediH0ZASMLEIfp1AdFbFjbPClCS5Q6j3gNx1JvMbMKnNvE21NaIYKwghMlMF2tH70WAoH2r9iVMJNdgzOoLjNDhBITKcux92mS8Z99agkHKKrAn1j1LGdx3DcZvqmYIJnMU8oJgNqAnjG+ksN9BXaYLDvTsi4OPKlGb9QCaYj0xRtcD7NMrj4SNgTgGbrRBVHouN7xwIk4qSGLUEgskM79YAaGyELsCmrwgVEBQKJROjY6ODhu+lJREWpQ6Agm4tmgqRvYVZYXNa2ngSEze7YrMD3WUJDthu442tF0FU4R1DMiEciNGjIC9vT235N3UMcZ3SgpT8bWzx+jixYttJCCy4H1AHxpyl9jWu09JbqAVTCYvwI3P5TQpjIDd4QmYa99RjM5yxLucg9ZSMxDz5JWLMQznSMKjtVmo36AQPttWwuSAI5Jby3q8l7CdPRHHb0S/NglcXWEozkj0xsCxU2Hg3TyO/G3UIvyUKgxWq+PRG4bp5+PPCIja2lrUMGLqc/FhAiILvkd2occIK7ZzMqMg4Go0D//+ZSoUrmfyJUHKLWzeIo3VVvxnUPvyImQmTMcyXVfEFRSggElR1yUxb4sWHKOrgBo/aPZfC+MrUU0CIs4RG7tLwjKwiBGwRQg6LIHhYw7DO5vZPz8JHsZz8V23PhhnQ0qHBmQ4HcDCLuOw+kYMc/wipDwwxYpu/8PItbZ8AeG3FVO3LIbukyYBUffsKMRGTMOG4/5II9cVdR1zh32Lv0iexHNWq6Tj2qY+kDx+Dyll1ajMcIZhtx4wf0iOUYfk21qY1XM4dnnmoaYiCpe2r8aQBfZIrChHSVEKHpzaggHffIeRq84ijlG59Y/UMXvLXGg9ahIQ2U7LMFh5Ew1holAonRPS8r1jxw52huSOQQTODuwGZYObeMYUZKQwa0opeJVXjg8e7CbJDuvkZSF7hbSedRyIECCGyfbt298pCsg6MuQrCTczMzNr93fWdgIiDbdVt2L9PHNEc0s+Fbn+x6DVdTAufq5h6wtCcXLXrxhw+hm34HNDvAhlKMorZcz0BsTaqmN7vxm48V7dnxpQVZiHkpIKxsRqBV4IzPv+Br2Lz/kttwz1RUEwXzMQA/vvwq3YVORXvI/o5SH0gDi2jZeAV1PD9GfnfQQEEQ7k+9DT04OLiwv7+3PwYQKCzANxACNmXgZ/kNZ6xNhrQ3X8MlwXzCr3yg1aO7dB/rLgg6pFcchFyC0cjr6iohBlUp85W3DSPwmlNUxBXeoP/YmbcOJmbGMfiGriYRi2BbbBhXxRUpsOx5190IfsP2wmZm7WwXbNvphozT8HryYLAYygHP97H+b4kyCraoRDqppQ3XCJ7X9Q+1gbS3ZKwji4WXlYX4Voh/WYM7oX+pHjalnj1IFJGG94DqHspJE8pN5UQv9BAzBU4xoiE91gPmo0LB6V8q+pKg0uOpPQd8pyuKbXoTLZE6YyPfjXKDoGa1SP44LhVmyaJofrRHyH7sWqnWtgENgkYnLvSmOqjgbsYqiAoFAonQwy2zRp+SbGaMchEpYjRLDvwrPGFqvWaKirRmVxEWqYv8WvXuHVqzRk5hW2mL2Wh5qyXKST9WmM4fPcDjIqm6HoyK8eOxJSUlKQlJRkjLM3LSbicYiOjmYnnfvll1/www8/sIU8GcWpPWk7AZEO1x3q2LT0FEJK8tnZuF+l56CEm026iXoU52chjX2/6civah7QUscYs4whW1WGzIwMpKWXgB9FzUNVFvOb2Sc9Kwfx909ir8goXOIPGsNQj6qidO6Yr5CWkYPisuYVPA/lJXnc+jRkFFc2jYXPUoeCXME1kf2zUForeA8NqK0qREVtFUrTmX2ZdeWZYTi/uyeGn3vObQPUlGQw15bL7Mf/3VBdhpw0/vFepaUjq7CcuxeGukoUV1SjqrqcOW8Ge03pmWWofasdzkNtZREKq+tRXcqchzluWnoW8ioFz44LYaqoYZ5EA+Iu74TmkLlwahwipwblBen8a2FSekYeShuf+x+EMPGe4czgXth3KQKkHba+OAgn1wzAwAF7cCe1WYx7a9RXoyQjjT1nZkEOAow2QHPaBvgIPgdeBUpym11XZgGYW+Ag77QQ1bXVqMjNQQazPi09s9l7aRveJSCIt4F8k8Sj+9NPP7HDYqemprb7NyrgwwQEyb8VKCzmh7exS2oqUV1c2vibWcDUG2UoZfJXE/UoL8pGRno60pmUkd9MYPJqUVFUhkpme8GT4NUzxygsQ3VdA/N/Fcpy81FaUYDC/HzkFxQiO+YeTuoMgZZ3s2uvr0RhJpOfmfeaX8zkwaoaVJRW8a+rthwl5aWoaNmyxGOEcm4me03pRVWoqylhyhjmryDz1lUgLycLGQXlzPdUg8qiIlQ1yzMN1cXIzc0F6crBHIypS5ht2XvMQn5pNVMHVTH3UcRfzxyrpLzktWtoqClFEVPHvvao3gMqICgUSoeHVHAkNMjBwYFb0hHgC4j9F8IaW6xaozjKEYfGjMGB07bQ6d8f/fv3Qb8J82HgU8xVXjxUpvrhgOwE9CbrRcWhKLkVs1W3QfX654pneTtqampYvXo1Y3RmcEuYOokRDjExMTAxMUG3bt3w97//nS3YtbW12XXtTdsJiAy46eyA0uRNkN8hz7w75v0wRv66nS6IK+cq4IYq5IbfhuTSaRBl368IFu28hIiCGtYQ4dU/x8XxijhqsBtDRo/D0JEnEVJTh7IUB2j07MPuM2z2NChobYWG6FjYstEQ1SiKvo49kj25Y/ZH354DsGCjJcJZ8dKA6oxH0JNbgD7s+r7ovlQDds8L+SKCV4XCp5ewYNoY9BPs//uvWGrqgwzS2lpfjEdnR0DexBDafQZg3NQFcPAJwe3tIhhpGUGOgKpEJxgs74a+YhtgzdihNSWJuLdfDpP78o/Xv19v/DpLBvoBOfx8HGUF8W2a0Dy6H4rrJzDbiKLnb5Iw9UhGdWtWfF0p/E6NwrA9ZrDZPxajBvZHvz6DMXbLVaSRa2S+qmiHo1CYeABk4OBkB21oDmUEBJn+hTHSsoJOYtuy3vxrYZJI96GQ2O2ERPZkBbgrMRW6mtaIb80oIgJiSG8cdIxFQWEULDeMxIgh+rib+geesoYKxN3ah9Xd+7DnnLxBAsriS7Fj7kbcJ7FQdWVI8tHF+jkijdfVu+tYbDHzRxZr8KXCce5Y7DpwHEeWrMAkZr1or+5YesQfma+Jzo+jNQFBhAMJ/9yzZw+6dOmCv/3tb+w3amFh8dnEA+HDBET7U53jC7PxY7D51GOksMZ5FDyO7MDwmXrwY4db/fKgAoJCoXR4SKddIiA8PT25JR2BSFwYKQIVfUc8iY5mW94FKSY2DgUVfIOgLNYOin/5FgOnWuN5YSEKC2NxXX8jBk7QY4f749W8xOntUhi95gxCyfqcUBxWGIuvuszALrc09hgdCUNDQ3Y0poSEBDZUiRgppqam+P333xuNEpKIkVLI3M/ngPTRmDx5chsIiFz46q1C92+mYdvNSPZ+Cl/aQm7yWsgdegKiIWqfHcaqKSrYdyMBVdXVqK6Ox61V0yC+3RGRbBhMCI4xRmL3xUfw4FUBiooqGWMkEEbrh2PcUW/kM8fMT/TCgbnfo3vfMbhMejqWRsLeTA0rj/mhpIy0pFcjw0sf82dOgLQDmdM2CefXKUBu0xXEkXNWpsFZfjEM9zmyHSVRGwKz5Wo4bBOMzMoqdv90ZzUM+X01zB4XM8KmAvf0fsCvIpKwDclBUXEJc03PcE6vD8bYxqM65TYOLBfFtJVXEFFShmrmPcdfNYDRUgW4ppahooo5Z8lz6K0ahJFr9BBJ7M+Ei1g66H/oJXUcT9KLmWeVD5+9U9BLyQieaa1Y8Q3l8N73Hb7v/jtMvNJQxDyHjBBraPQbgG0uJNaiApG2hlg7QAdPmF8CAeFMjLV8fxw20oD8hSCUlTPPk7m/RAcFjJ2xgI0FJx1anRcNhdoWCzSbn6sJXhjODu0DTVMrGMgMRrf/SOJM2B8ZsPXIe2IJqWWTIO4Yw+aFJH8zrO/9FQYtVEYgcVykOWPHHm1o34hAeQX/usJPL0X/ORtwKoT4KdNxZVJf/PatNM4+SkMxefcPjmNE7zU45pfd1Br+kRABMXfuXMTHx7PCgXwH+vr67Df517/+tfEbXblyJZMfSU/dz8f69euFQkDwGFGf99QS8oMGY8DAgRg4cAgmzdkHj/S6Ro/FlwYVEBQKpcNz9+5djBkzBo8ePeKWdARicHF0P4j81guibIXSlIaPmYgLIfxOaqWRl6D1myjUWaOIzysXA2iIzsBtps4s8DOC+trZOBHGrWQof7IbC1ZOwZYbTRMOdRTOnz/PzgRuZWWFU6dOscLh//7v/xqNEpL+8Y9/QFpaGmFhYez8Ee2diMghk959fId7fgiTzOIzfCOZI+rCGqxTVYNbYT1ijs/FNrVduBkYyQnISLy4ths9f1DHyackiPkFTvXvgfWHA8A31Wrw6rYheg85jPtlgoPWIe66JlaJjIItv1doo1HSUJGDWOa4UT6nICG1FuKXiESIxJ5lSzF+9RH4xcQiifS34W/O0bR/fWYq4pn9I3zMIN5tHU77F5BADnga9USPTReQIIh7KnwBS4N+6K+ph13zfmKMXgckNWsUb2qlrkJBCnOfUaG4JD0ZG5dpIZisSjiLRcPXQskiqjFsqO7hHgyX2otL4a0YqXWl8D7EXIO8OSIELrwy5pva/TsGnSFhVBWItj8IyaF78JT51eiBYEOYmu6vqjgTMcz9Rbrux2zxjVB3Jp6xUrguG4UdyucQ25qAQDjODOiO//7nR3STWIPV/UTRd8URhL7Lhq1Pwg19dQxacBVNX2Ue7miIYcUMeTxgQ5iarqsk9xX/uhzVMWK1Oo49JmKaCAhRrNpmhxhBWFN9ME7064n9V2LfGQr5Zzh27BhmzpwJZ2dnGBsb47fffnvjGyVp165dePnyZavfUHslMjCGsrJyhxcQAmory1FWVsakclS+Ecr4ZUEFBIVC6fBcuXIFU6dO7WCzIPNDmHTN/ZFRVcV2FG5M1dWN8auF4TbQ7zUY5xvLWB5SGQGxa+AsuDIaI9FKGeojl8G9eWN9kgM2bFXqkH0grl+/jilTpqB79+6NoUqtJWK09OzZk009evRolyQ4348//ohBgwaxMegfRwpuqx/CDmlPsP0ZOcp8N2HyVmmciEnFY4XZGPFLdwwYSian4qehw4ZiQP+9cIopZwzv54yx2guGV2P4oW4NxQixkkHvrY5IbdZpISfgFPQa+0A0oDw/BRGhbji8XRx9yHEH9sbPAxZg01WSJ3hI8zwAuWmDMXhAT3w9QxZ6zqGIyipAJWvB1qHkVTzCn93EoelTMZZMKDWoN37771KcCSxFA68MHqYiEDnsgSKBIVsaDdstf8M///kLuvUahEnK1xnzuAleZSEyo17gno021kwZyN5n35+/wdwN+/GSnDP6NObLqsPAu6mXc81DA4ySMYBtawKitgReh0XQ+5ArcgXdDoqicdGgFwZZvENAkBAm0iE2KwEvn97ATrnF6EeeOSPSvhsmCQMv0ov2jwTEc5wa0AO9l5xAcEktapNuYMuA37HE2B25b4skKniGMwYSGG/0mFtAqEPYIRlokD4QJISJV428tBi8eHAJ8qtmoz+5LtHu+HqCCizDyAbpsJ/YD7tNPCB4SrzaIJxm3qHh1bYTECdPnmQbMgYPHtzqt0kS8USQcMPevXu36zcqSOScxPj8+uuvoaGh0WqfKkrHhgoICoXS4blz504H9EDwBYTBueDGkVxao1FAhAnaJnlIcTbAzoGz4cpYlCm2qlCbtBh3msfRJl6CzGYZRkB0vD4QFy5cYMUcmZF606ZN6Nev32uhSyQR44R4IAICAtihX588edIu6enTp+z5dHV1MW7cuDbwQBABYcQIiLuvCYhSH3nMktuEs09jcXmRKCS3ngeZSJaEdJEkeNMEYiCeIgLiCje+PCMgwqwV8LukA1KbGbe5j05CmxEQdsnMcYpCcVF1KLr2HY01W+0RQ4za9NtQURHHmguvd4xtKAyCntISDBncF9+I6cEuqhoN1fehOXsseosOwvpTfsgkIiHbGRv6yuC0fz7qGwWEOwoFAqIkHOcVfsbAxfZ4EmQJDdFh2OKYyXVKLccLyz2Y+21vDFq6BcZBZASYGvjvWAjlpZoIEggIeTXoezf1jan2138PAeGMHEHXg6IoWO3thcHvEBAuzKHqMt1hJNMPv4tOhIKBG9LI84k7i5Ub5aB2+z08EIJO1LYRnNFej8RrmyDa9Vuo2ae33vG65DnO7pHGqF0B3AJCHUIPSUGFERB+jBisjbsE1WW90av/TGieeYw88lxCD2CKjBqOBvA9EKyAOOgOwVPi1QTiJCsw29YDQUKYyLe6Zs0adO3a9bXvk6R//etfbH8IwXfT8lv61Imck4SmklDDzZs3UwEhhFABQaFQOjzE80Ba1DpaHwgiIAytX7YYUel1BALi3BsCYiacGNFQ+vwMNNczBgcb3M1fn+ysgPHTxkLFqeP1gTh48CAWL17MxleTDtJEJJCRmUgfFUF8NflLjBZSwH8ObGxs2qgTdSbu7lTEwsl6TaPsMMap176lWKtiiMDKSoSpzcasWZpwaf6qKqLwLCYR+dU88OqCWQFxgBEQ/DkHqpHtcwoj+qvAstEFUYFAs7WYJjIGjoxlWRZ6Cqqrh2BnELeayROZd1Uwc/ZQyFwlI8qXIe5lLGIymrkwMqwwddwWaN/KRtULfQycp4tLkYL1tUi21USXX1fj+FNG7goEhGkzAZEfBos9PTHSOo6xpzPgvm85+gxXxPVckm9jYSanhEFLnJuM3PxgmMztj8Wr94Dtdk0EhBwjILz+pIA4+GcExDzcrQAKPDQhvW4mjjQOeVuNmMsrMXzWDOh4EkP9/QTEftuXTeK/LgUOigPw6/82wy6xaYz8RniZuHd4F4ZMPQR/weraeFyUGs28FyW2o3eavTiWy0vhcuMjKMFT88noLbYOZ0LJTnwBofOJBYSgE3VcHH/2EjL55rJly1ivIfk+BYk0BHy8l+7jWLdu3Uf1gWioLsKriEA8euALHx8fLvkiICL5nYNbvC8NFdmIfhyFrNIWfR3qK5AV23Q+v4eP8DjwER74csv8gxGR+eevoKE0HRFJWSj8BOFRDSWJeBEbhnhSltXkIyE5FWnF76q93g0VEBQKpcNDJiMjI5o4OjpySzoCL3Gm3y9Yp3gEDu7ucH8tecLbN4k1TgpfWGLXjz1wMqRJQCTd2AXV7qNxmTU6M3DTVBvj52nCguzrcgXbl47E37vNxnanz2OAvwsSbrBq1SqkpTVZzGSYXeIdIh0iidDjCnVoaWl9lhFe2m4Upmx47lyKrv8YjdXHb/PfrdUeLJukCr1LCfyW6uSb2CYmhvlbjuMG9/7P6k7CRBVTPMisY153MI51+xF7LkUy5iQfXnk8HPfOwCgNE7iRfZxOYOuUb9Hrt0GwS2Hs0gRn7JafgBm77BjR7AGPW5bQlhyOn36cgOUnnqMKMTisII2JK3Rh5+7BCuurxgsx48BBeJDYmFhriI9dDSWTK/D08ID71RNQmjgc3f4yDHruWaipL4Wb4c/4+YArCgT2Q14IzDR/QJ9T/Hkg6tI8sGdZb4hsuIjQvDQ4m2pg3GwVnGXO5enhDDtNWczq+j1E16rCiyijqBOYuk4J2u5N+aLaVxuiq3fhQlgrnelri+HOXMNPBjeQLRAQhRGw2PkjepiRmc7LEWltgBW9NEHa/BPttkO51xS231Bl6FkoSEzDcqMb7PNxdziBLcv64ZufxbDNnhG2jCl+W0wU2zaeRHSrAiIYJ3r8CB3LMK5fCp+aBCdsGfQ7/m/aLtxIftOgrYp3wd5tUzD7gC37nm9d1MCiLv/G0OkKeMK86iLffVi+Zj7kT7jwn7utIdbP6Yl/dV0DY68sJr+kw2bYb1A3cIXgKfFqHuMokz/0bF+f1O5jEAgIMheLADLPg7e3NzsAAum3JPhGidgW5lGYSqKuQGPSP/BLv5EYNWoUl0Zg/OxVMLgeidSP6pnOQ3WyBw4sMYBrdOnrnqmKZNw5KDjfcPTv/gu++ccv6DeCWzZTGjq3/3wIapm3NvpLHIBjdNt7ZKrDz0DNdCuOvWR+JFph8YbNUHP+8MlKqYCgUCgdHtJpbfjw4Wyn3Y7DK7grSWLBpImYMH4822m3KU2B2CJ7kGCT8tR7sFknC5f4JgGR/cgGZ2W2475g0iPk4K6FOnecLThgcBq6l07jhC8ZcadjsWHDBkhISLQ6eotASMjLy6NPnz7sqC+kk2Z7GyhtJyDy8PjcBZzfYY6Dpjv473aCIo44pr7eGplyG5obZje+/wmbLyA4l7Nc66LhJLMOtt6peK1duyYVt3WmsdtPWyUOw4tWsJVSgifXIFwcfA17J07gH3PBNpjf8Yfj8YPYuMcVbD/ifH8cU1vUlPfWH4JrQtPkUHn+apBaxO0/cTscwgJxc6MkjBwiUVpdiRDH9ZC4Gtg4xwNK4uFstRYbXQRGTy0yPI5jzXwpaD4pB+oTcctEovF8iqbWCPC8CJX9OrhIdslwxc5Dp2Ad0tRzovaFNTYZ28AzsZW29bpyhDhIYN3lR01ekLIUuF1cB1lncsAqpHpdhqGcFYgZnOV7DhZymnjIOeoy71hg+0Tu3lfshoPfA5zeux/qZo+Z51yHoD2bcMbMBa9ai0fixeG27DrYeCS2aKXmoejpWUydvxgrr745hwKh5pUXjsvwn+sSzZ0wP2SESztMEMoeqA4JVgcgN4G7rvUm8HrqjX2qBtjPHK+GkSu+ypI4fzmwsX8JrzYKt5j8YefzCk1v7+N41zwQAiGxdOlSVkiQvkLvmnDuU/OxAqIg1BJ60qNh2Oit45PhsBez+kyAvH14mz3Xt1OB8AsHIDVmHwJbjX97f8p89mCgpDGuxXzY83hvIi2xTH4bdrgQj+aHQQUEhUIRCsioImReATI0IuXzQJ797Nmzoaqq+ocz15LQJjJZlbW1dbvPctt2AoJCET7eJSAEkPBD4kURExNjR7lraPhIy/cD+WgB8ewC9jIC4sDjlq6mcjw2Xowli9bhZnYzuZ/zEo9cHVlvtqPjddxyi0COQEXW5iPucSZyk0Lh5nYT1/xjkV+UhZgnUchsGcL0GiV4dn4/IyAMENAyIqj6FULcufNd90dURpNLpCrnBZIKYhH36CHuMusD4vJQ4rsVIzbsZQQEJ7rLY+B5h7mW5+mNkzZWxLvgxjX+9d/xjn5DIFVlRuDWdf45b/gEIYrz8NUXJ+B57DPEEedGrBWWb1SGpisVEBQKpZNDwmGI+52EM1E+D6QvytChQ3Hp0iVuyR8j6CvRnlABQfmSeR8BIYCMGpeTk/NZJnwktJWA2B/wZiNFQ8RxrFFZBMW7fH9PbUYAzh5YgBlTpmL69OlMGou+/zcdcieeIJfsXugJ1V6yWLdlA+asWoCZ2o54EWgD+W6SuBBUyA0o0BpFCD23D5Jj9PGo2VyEVUnP4H1IEesXkXMxacx8rJBlhEI8f6OMW0shuXUa5GZvwGpm/d6b4Si8L45xclq4SaJXK2NwRWMJRMdNxcwzD1FcX4m0l1egozES02eQY07FtPEbsdshjus/04CCeC/oy02HyFiyfhpGjJ2MpXtvIY4RSTVPdmKO4mRsIzGBqTZUQFAolC8D0lpGhiWk5cPnw8zMjK0IQ0JCuCUdEyogKF8yf0ZAfG4+pYBAihMUtypCxjaa/VkRbIrt547DrdmQarFa4/HTcm24kLjAivvQGPA//K5yvbGTe03MVSj0lsWl0KI/JyDqC+BpuhXLlx5AOLcIiMOJ9ashrnUN6dVAifd6jOohAiXbpnKqzFcPQxROwflZKO4cksaY6bvhksA/c33uExycOwMSno2xr6gNtcHMqUth8rISqE7AJd1x+H6hGiI4T0iRz/+3dy5gNeXrH5//Oc/fPMeZOc7MmOM6xt3kYHILIbdxiUpIKLdKu5TSbSqFpEwkiYpMoZFLp3RVJJPcKyeNKaX7RUKl6EpS37N/a+/dhRhDYu/9fp7nfVgXa6/9PNtav89av/d9f8auNbaILOHrReImKK37AaasKkE+CQRBEFIC6/wqKyuLHTt2fLCnZdIMm+Kgrq7OJUq/7c2+oyCBIKQZEggh+aHQ0deFhm9zMrmAQsSG+sDd3ROOet+hu6EDzrLiAzXnYS4ji61HU4RP9BtRe/sEdPtr/XmBqEzCDhsdDNXYhAOe7lxvDndPL2xZNgjy6toIK+XLyTl1jFq1HB5JzdlR1Rc2YeS8JVBTksFf/6LZopJaAyr/64OZ3TSxYddeeLDjuXtgn7MV1BQ749sDWXieFwq7dYOx9EzbCdg1cRuhbDQTZiQQBEFIGzwej6sA9PBhy6r8REfASkKOGDECLi4uwjUfLyQQhDRDAiGgMdsb6y2XwfwUV3YADRVJiD65D27Gepg7R5GbEjtH7mt8rr0dMaxBYXUMXyC0sDssR5hX8PYC0VAQClvN3ug5+geo8D+HfRYLVbVlMHYPRSZ/v8rIRRhpZoBDLUqFVV+yw8iuXdBn1FSMHaAKy5h8YZnwetwNMceXX3wPeUWlpuMpz1+AxdoWcEgoRmXKL9iqMQo7WEmwNqglgSAIQlqJjIzk+g2wxnJEx2Jvb4/Ro0d/ZN3A24YEgpBmSCAYDcg5ZgFzfUOcLWHLdUjfvxCqIwdiuvpORPwu2L82VBHfmdngFKurywnEcuwKyRZWTHt7gXie5QNtlbFQ2dvcmf1FHoTyBcJEHwfTmgf8VbG2GC6nC6/EEqT7qeBv01ciOI8pRD1yjujh617bEPeKfPfqtOPYqDsY+rGt6r01UXONBIIgCCmFJfzNmzcPCxYsQGVle1VNJ/6I7OxsTh6sra07vKLS20ACQUgzUiUQN7xht3ocdr3wVRtTToA3UhEadlch6ELyCOHK32PVYtemHhy4F4LNc/6Fv610wgVWHriq/QQCtRnwWzUfQ0ZtQVSLMkm5p30RFBgL5jSPItoQiPM2GKbjgvBcvjQ8uoG1Cn/BeK1grnRzfVYgFIfJQvNIi/4Sdbm47OaOqGz+/o8T4WYuh2/XnWlubvrsNqLPefMlhP/vE+1IIAiCkF4uX76MPn36ICAgQLiGeJ+wHg6WlpZcXfvbtwXJiB87Ei8Q5amIiI5GdEYbHZ4r0+F/6AKuZL57nkpjWQoiT7nAO5nVuaxF7qVYnA68wQ1+XuJJHsKPnsfZGyWtG24xnuQj9mAErmeU4130k5XRrCp//1X9xR1pEohHN31gJN8JI9XNuUp9gjADT2U2FqzdhzCukzrjCbIDHLB26lwsWSvYT9dCHRrz/o0uMqbwSari7xKNtd1U4OifIewP0oiaW75Y+k81HEh4XRWmciTssYLyAAvEtvh5Vl4PgOWMKZBXNRSelxY0flDAZvdQLkm7PHgm+q7RhGdKs0BUnl2PnvM34miaIAvjUYIxpn7ybyjvvIgHqESy/1rMmDkN2maC72CkPQ8ac9bDP5UVea1FZswxaM5dBjUTwXYzI3XM2WoNn3S+QCRYQEFLDrzL/F1zvDBNfTX0uXJPbwcJBEEQYge76bAn4vfvC+a2Eu8P1giO5T5s2bLlg3as/TNIvEDcPgglDQ0sP5opXNGCAj/IdjeAhX82N+B+FxpLkxAUaAe3G+xt3z2EGfOwcMJ2CHpVv0BZOOYM0cWyHUkvS0JZJPS6KcP+2G1hcuqfp+buNYQddUPwjbanZxDNSJNA1D1MRaS7JUwMeFyOnCh+9DiJzJdG/E9x66QnLPUE++j7xiMnPx7HnINxLq2C/4PPQ5RbAK6klgl/w414VvI7QlyCkFT05GUxbuIJiq6fR8C+GOS/kH7wNDkKXgZ6wvPSx96w+Kb/A1Vpx+ERGYbEkuYj1+VEY0/gBaSUiro+PEbirq2w9ojBXe6k6pF6/EcYCr+ngZUjTre6DTbi3vXjMBBu523ZjxDhK5dnBefgd+oQTrNmlY+ScDT4FM6kt/EQ4g0hgSAIQuxgT8K7du0KW1tb4RrifcCS1VVVVbnSrYWFTS/+P3okXiAyj0JDTw/6gW18v8IATB36I+xC8t5ZIFpThDMbTLFqzp4WZSlbUB4F9XGm4O1Nflkgys/BXEYTO09mvtD5+c2pTPLABo2RcE0XriBeiTQJBPHhIIEgCEIs8fT05CSCdTom2p/a2lqYmpqid+/eCAsLE64VD0ggBAIhoihyGyz0tKGtzQ8dfZhuvIj7LZ7OPv7tZ+jrsO06WGvzE6KFTzTZFKbTEbvgk8KG/Q/4AmH2TgLhEpTFVbepvH0KO68mIuaAEdavM4T3pTzkJJyES3gyHokexj4txW+x/nCPLUBFSSJ8143HiIH/wtgl9th/SVClv7HgInxtdQTfi3/uPGMvRN0QPt9tvINYr1DEXb2GMDdHGPL30dEzQnhqSTuL1ccHCQTREZBAEAQhlrC+BCYmJvjmm28QFRUlXEu0F7t370aPHj3g5eUlXCM+SLxAZPhh2VojmEQJ0kNbUXMGM4dbYbNQIIrOm2OezjzwTG25N3Y25uoY+4k8lp5IQV3jM1Qkn4ausi5WWG/kb7cEb9FsqKodRhqzgJwTMNTrjnHHWI3LknYQiGywiRlFASvQZeIoGFqYwsHRAYEJ6Yh1V0NXLb/mKSAVaTi8WQV9f/wVFWW3EGQ7C/LDe2O6gSf8E4vxLC8cTnbTMF3LjPtetrbmWPqtLL6f64rzrPFwYyIcx4zBEHld2Dq6woG/j8XCoRg1Zy/OFbztexDxgASC6AhIIAiCEFvYTYfdgIYOHYqLFy8K1xLvire3N7p168YNzOrqmup5iA0SLxB5QdBbOBoDJszF4sWLW4fSBHz9D204RxVxT9pLk7zhlZDValD/69oe+NImFI9qK/D7npXo3OdwU+ddlKXjrI9gLndjbhAszYdi1kmWNt1+AnH/JA99/z4Ne1NErxseI857FQauC8AdkUBUZuD4dk2MsInhvkdtykFs5U2BR4Zg8/N7VxEcE4BLLYuxhazEMJX5cLjJFtLgOqMXhs+xR7xoOnnxf6DaXRPbw/Oaq9RIICQQREdAAkEQhFhz584drqEO6w8REhIiXEu8DaxEK+v0zeTB2NhYbG/qEi8QOQHQWTYD45dbwdnZuXXYLseAbvpwiixsPVUn7xgMVy3EfGUVKMh9ge6O0aior0PxZWfM+78hmKCkisV6VohokZDZkP0nBKLsNBbKmUDnlQKxFM6BWWBVLouCDTFwticulQiH8c/KXi0Qtue56jcP4/bAeqU8dlx/cQJSFgJceZg/XxXKU/vhazUePLnGw8nYPnkWrHf8iqa2k5UXsGGoBnYGZLx1Mrc4QAJBdAQkEARBiD35+flYvXo1evXqJZZTbj4GKioqOGlg05bs7Oy4ZXGFpjA1T2EqSdgMA00VTOcPnHW27ILbHlcYLeqGXo6RKGOD9YaHSDvmDc9dW6A7pzf+MXwm1PSsEcHKw+cHw+pNBaLuCqymbMKmvSncW4ZWVMbCepAFDkYXcjJwN4QvEPoHcP3hawSiKgv+zqteKRANpRfh67gY86eoYL66NVzc3OBiOAEDlmthzy22x02+QGjD1uVqs0CI3oS8QzK3OEACQXQEJBAEQUgE5eXlsLGxQadOnbjKQWlp3GNI4g2Ij4/nmvMxAfPx8RGLZnGvg5KoLbEljBlAMUJUekB1iRlcD/8OUcHGWPsB6OsYigeipldC6u5cxdH9DtBaMhUKezPx5G4YrC3eUCCQhxOKVnBzimv6HBENqe6YrPgTAm8JpLSQvYHQ3o/4UpFAPMTVn1dgoEk41zCL4/FvOGDzPV8gYjmBKL3mBusVE7ErkW18jqxD+tAdOQLG7qeQkCHICG/8lYdxa5bAmTtBJhArsMH5MlhKBAcJxEcHCYT4QgJBEITEwObrs/n7w4YN4/Iitm/fjqKiptndxAuwcrjsrcPgwYOhpKSEiIgI4RbxRhoEYhmPB71XCMQUGSYQrNh7Frz69YDurv8KtvHJP6mMYd/8FV22xqCqrhqZwT9BU/sM2N4c9TdxyHgMlv3nIeoLQ2BlLoOZIoGwNsXK2a8SiDpk/bwEM4csgfvFlhOEcnBQVQZKm08ivZblPDSgINgAA7RaCERDNdL8dNFlhGJTzfrqq66Y0fNLyG6OBXsp8TTFG+sNRkD7vOAVReLmhVg6fAXOcUt88v1gPe0LdFLQxwGuUe9NOE1aDusdrQXC7DuNdyonKw6QQBAdAQkEQRASBxsYs2k4rNncmDFj4OHhIVZ9DN43bGDBEqRZ3gjr8cAqLrFcEklB4gUi3RcLV6+G1oks4YoW3DmOcX3XY8PJXP5CLYrO7obW6HGQmzAREycpYJSxCbbwpqCrrBviHj9DeXoELBR7QmY8f/vEiRg3eTJmOPkhnzlATgBM1vXFZP9i/kIxIswNsXSKC39o3jYN1TdxyWM9Zk+dCHn+sdjxJsoNwlLDnbhRWCHMyXiO/IA16Km5F1dFORD8LU/vJ8FjrSx6yMhj4jS+HJhvhYHmTHxnFc3lTaAmBV424/H//RVh6nQTj/IScHC1EsbKCj5HTkMH5htXYepQDRgcZr/lZPw0ZjHMt13gq4+Qsiis+3YRnPzTKQfiI0EkEOI8ZVJaiYuLI4EgCELyeP78Oa5fv86VemWdlGVkZKCmpoZ9+/YhPV36ulGxi72TkxPmzp2LQYMGYdy4cdi2bRsyMoRlbSQIiReI2gdI5f+G04tZV4UXeFqMpPhs5JaI5ic9Rc7lcwgLDkJQcCgisyrxrDwXCReyUSycqVZdcAbhbHtQEIJPn0ec6JF9bQmys+Jxs4Tt+AxlOVlIu1n4B4PvUvx2JQLB/GOx4wUFhyG1tOWUuEY8KclA3O27qHjW3IGX0VB6C5FhwQgKPYPYW0UoLs3E9ZxybgoTE4/ygmScPRWFKzcEWQ01hbcQEyo872uZuF9VhtzEW0jJZWdYgzs30pBT8Lg5qbu+HFnxqbhTUis8pmQibgJhaGiI6mrJLq0ribD7KwkEQRASS01NDRITE7mpTazhFBs49+/fHxMmTOByJVi7/40bN8Ld3Z1rSicJ4erqCmtra+jo6HAVquTk5NCvXz9Mnz4dRkZG8PPz4wYXrJeGJCLxAkEQr0GcBEJdXR1r1qzBL7/80ua17F3C19e3KUTLr/vzfQQ79vs8/oeKI0eOwN7ensubS05ue1Lj+4YEgiCIDqOsrIy72AUGBnJTeNavXw8tLS0sWrQIM2bM4KZCTJo0Sexj9uzZXE8AJhDsDYyDgwMiIyO5tw2VlS0L50smJBCENCNOAsGuUaNGjYKCgkKb1zKKjzMmT57MTQ9mf/9QBUtIIAiC+CCwhGs2mC4pKeHyIzIzM7kLoSREdnY27t69i9LSUlRVVaG+XlQbUzoggSCkGXESCHadYufZ1nWM4uMPVkL96dOXCjd3CCQQBEEQRLtCAkFIM+IkEATxtpBAEARBEO2KSCByc1klIoKQLkggCGmABIIgCIJoV5hAsHyWggLWTI0gpAtWlpkEgpB0SCAIgiCIdoUJxPjx4xETE8PdZFjyOAWFNMS9e/ewYcMGzJo1iwSCkGhIIAiCIIh2hZWE/Oqrr9C5c2d89tlnFBRSE59//jk+/fRTrmQzEwqCkFTaFAgKCgoKCgoKCgoKCoo/CE4gVvPjiXAFBQUFBQUFBQUFBQXFK+IT6/8BHpvhpM/1Jw4AAAAASUVORK5CYII=;" vertex="1" parent="1">
          <mxGeometry x="100" y="40" width="560" height="130" as="geometry" />
        </mxCell>
        <mxCell id="vroib92ddQXYkMbmMrBx-2" value="" style="edgeStyle=orthogonalEdgeStyle;rounded=0;orthogonalLoop=1;jettySize=auto;html=1;" edge="1" parent="1" source="vroib92ddQXYkMbmMrBx-3" target="vroib92ddQXYkMbmMrBx-5">
          <mxGeometry relative="1" as="geometry" />
        </mxCell>
        <mxCell id="vroib92ddQXYkMbmMrBx-3" value="start" style="strokeWidth=1;html=1;shape=mxgraph.flowchart.terminator;whiteSpace=wrap;" vertex="1" parent="1">
          <mxGeometry x="70" y="215" width="80" height="40" as="geometry" />
        </mxCell>
        <mxCell id="vroib92ddQXYkMbmMrBx-24" value="" style="edgeStyle=orthogonalEdgeStyle;rounded=0;orthogonalLoop=1;jettySize=auto;html=1;" edge="1" parent="1" source="vroib92ddQXYkMbmMrBx-5" target="vroib92ddQXYkMbmMrBx-23">
          <mxGeometry relative="1" as="geometry" />
        </mxCell>
        <mxCell id="vroib92ddQXYkMbmMrBx-5" value="Menentukan K" style="rounded=0;whiteSpace=wrap;html=1;" vertex="1" parent="1">
          <mxGeometry x="170" y="215" width="100" height="40" as="geometry" />
        </mxCell>
        <mxCell id="vroib92ddQXYkMbmMrBx-27" value="" style="edgeStyle=orthogonalEdgeStyle;rounded=0;orthogonalLoop=1;jettySize=auto;html=1;" edge="1" parent="1" source="vroib92ddQXYkMbmMrBx-22" target="vroib92ddQXYkMbmMrBx-26">
          <mxGeometry relative="1" as="geometry" />
        </mxCell>
        <mxCell id="vroib92ddQXYkMbmMrBx-22" value="Ekstrasi Fitur" style="rounded=0;whiteSpace=wrap;html=1;" vertex="1" parent="1">
          <mxGeometry x="430" y="215" width="100" height="40" as="geometry" />
        </mxCell>
        <mxCell id="vroib92ddQXYkMbmMrBx-25" value="" style="edgeStyle=orthogonalEdgeStyle;rounded=0;orthogonalLoop=1;jettySize=auto;html=1;" edge="1" parent="1" source="vroib92ddQXYkMbmMrBx-23" target="vroib92ddQXYkMbmMrBx-22">
          <mxGeometry relative="1" as="geometry" />
        </mxCell>
        <mxCell id="vroib92ddQXYkMbmMrBx-23" value="Input file MSD" style="shape=parallelogram;html=1;strokeWidth=1;perimeter=parallelogramPerimeter;whiteSpace=wrap;rounded=1;arcSize=12;size=0.23;" vertex="1" parent="1">
          <mxGeometry x="290" y="215" width="120" height="40" as="geometry" />
        </mxCell>
        <mxCell id="vroib92ddQXYkMbmMrBx-29" value="" style="edgeStyle=orthogonalEdgeStyle;rounded=0;orthogonalLoop=1;jettySize=auto;html=1;" edge="1" parent="1" source="vroib92ddQXYkMbmMrBx-26" target="vroib92ddQXYkMbmMrBx-28">
          <mxGeometry relative="1" as="geometry" />
        </mxCell>
        <mxCell id="vroib92ddQXYkMbmMrBx-26" value="Menghitung nilai jarak euclidean untuk setiap fitur" style="rounded=0;whiteSpace=wrap;html=1;" vertex="1" parent="1">
          <mxGeometry x="580" y="212.5" width="110" height="45" as="geometry" />
        </mxCell>
        <mxCell id="vroib92ddQXYkMbmMrBx-31" value="" style="edgeStyle=orthogonalEdgeStyle;rounded=0;orthogonalLoop=1;jettySize=auto;html=1;" edge="1" parent="1" source="vroib92ddQXYkMbmMrBx-28" target="vroib92ddQXYkMbmMrBx-30">
          <mxGeometry relative="1" as="geometry" />
        </mxCell>
        <mxCell id="vroib92ddQXYkMbmMrBx-28" value="Mengurutkan terkecil" style="rounded=0;whiteSpace=wrap;html=1;" vertex="1" parent="1">
          <mxGeometry x="585" y="280" width="100" height="40" as="geometry" />
        </mxCell>
        <mxCell id="vroib92ddQXYkMbmMrBx-33" value="" style="edgeStyle=orthogonalEdgeStyle;rounded=0;orthogonalLoop=1;jettySize=auto;html=1;" edge="1" parent="1" source="vroib92ddQXYkMbmMrBx-30" target="vroib92ddQXYkMbmMrBx-32">
          <mxGeometry relative="1" as="geometry" />
        </mxCell>
        <mxCell id="vroib92ddQXYkMbmMrBx-30" value="Memprediksi berdasarkan nilai K" style="rounded=0;whiteSpace=wrap;html=1;" vertex="1" parent="1">
          <mxGeometry x="430" y="275" width="100" height="50" as="geometry" />
        </mxCell>
        <mxCell id="vroib92ddQXYkMbmMrBx-35" value="" style="edgeStyle=orthogonalEdgeStyle;rounded=0;orthogonalLoop=1;jettySize=auto;html=1;" edge="1" parent="1" source="vroib92ddQXYkMbmMrBx-32" target="vroib92ddQXYkMbmMrBx-34">
          <mxGeometry relative="1" as="geometry" />
        </mxCell>
        <mxCell id="vroib92ddQXYkMbmMrBx-32" value="Hasil prediksi" style="shape=parallelogram;html=1;strokeWidth=1;perimeter=parallelogramPerimeter;whiteSpace=wrap;rounded=1;arcSize=12;size=0.23;" vertex="1" parent="1">
          <mxGeometry x="290" y="280" width="120" height="40" as="geometry" />
        </mxCell>
        <mxCell id="vroib92ddQXYkMbmMrBx-34" value="end" style="strokeWidth=1;html=1;shape=mxgraph.flowchart.terminator;whiteSpace=wrap;" vertex="1" parent="1">
          <mxGeometry x="180" y="280" width="80" height="40" as="geometry" />
        </mxCell>
      </root>
    </mxGraphModel>
  </diagram>
</mxfile>
